fontCallback.success({"glyphs":{"ο":{"x_min":30,"x_max":741,"ha":774,"o":"m 395 683 q 645 587 550 683 q 741 337 741 492 q 646 79 741 173 q 385 -15 552 -15 q 127 78 225 -15 q 30 333 30 172 q 129 590 30 498 q 395 683 228 683 m 269 174 q 305 85 275 119 q 386 52 335 52 q 464 85 436 52 q 503 172 491 119 q 510 237 506 194 q 515 336 515 279 q 510 431 515 391 q 503 494 506 472 q 464 581 491 548 q 385 615 436 615 q 291 563 315 615 q 261 459 267 512 q 256 333 256 407 q 269 174 256 248 "},"S":{"x_min":55,"x_max":687,"ha":742,"o":"m 95 251 l 116 251 q 188 116 145 158 q 322 75 231 75 q 438 113 385 75 q 491 211 491 151 q 382 350 491 294 q 168 461 273 407 q 55 664 55 539 q 159 875 55 801 q 409 949 264 949 q 653 891 535 949 q 622 805 635 848 q 598 712 609 762 l 583 712 q 509 818 559 779 q 391 857 459 857 q 283 827 328 857 q 238 738 238 797 q 349 609 238 666 q 570 497 461 551 q 687 295 687 416 q 570 62 687 143 q 292 -18 453 -18 q 171 -8 229 -18 q 55 26 113 1 q 72 116 64 68 q 95 251 80 165 "},"/":{"x_min":-32.953125,"x_max":420,"ha":383,"o":"m 339 1023 l 420 1024 l 47 -126 l -32 -126 l 339 1023 "},"Τ":{"x_min":8,"x_max":738,"ha":749,"o":"m 493 818 q 490 723 493 790 q 487 652 487 656 q 490 427 487 529 q 498 201 494 326 q 503 0 503 77 q 438 2 482 0 q 374 5 395 5 q 317 3 351 5 q 244 0 284 1 q 252 266 244 88 q 261 476 261 444 q 258 670 261 533 q 255 818 255 808 q 158 815 188 818 q 8 801 128 813 l 12 872 l 8 932 q 198 927 70 932 q 373 922 327 922 q 572 927 445 922 q 738 932 700 932 l 733 870 l 738 801 q 493 818 614 818 "},"ϕ":{"x_min":32,"x_max":997,"ha":1028,"o":"m 418 -6 q 146 79 261 -6 q 32 322 32 165 q 143 560 32 474 q 418 664 254 646 q 411 819 418 715 q 404 978 404 923 q 483 970 445 970 q 622 977 556 970 q 616 829 622 938 q 611 664 611 719 q 882 573 768 664 q 997 328 997 483 q 886 90 997 171 q 611 -6 776 9 q 616 -197 611 -68 q 622 -374 622 -326 l 544 -365 q 471 -366 503 -365 q 404 -373 438 -368 q 411 -183 404 -315 q 418 -6 418 -51 m 611 328 l 611 61 q 742 147 704 72 q 780 328 780 222 q 741 510 780 433 q 612 601 703 588 l 611 328 m 418 601 q 287 510 326 588 q 249 328 249 433 q 286 147 249 223 q 416 61 324 72 l 418 328 l 418 601 "},"y":{"x_min":0,"x_max":669.453125,"ha":653,"o":"m 269 -16 l 76 481 q 37 579 58 529 q 0 667 16 629 q 66 664 22 667 q 134 661 111 661 q 201 664 154 661 q 251 667 248 667 q 308 465 277 561 q 380 256 338 368 l 452 463 q 482 562 462 493 q 512 667 502 631 l 577 661 q 623 664 593 661 q 669 667 654 667 q 438 139 536 375 q 244 -373 341 -97 q 165 -368 206 -368 q 132 -368 145 -368 q 86 -373 119 -368 q 145 -277 119 -323 q 195 -176 170 -230 l 269 -16 "},"Π":{"x_min":91,"x_max":957,"ha":1049,"o":"m 105 284 l 105 461 q 102 651 105 534 q 99 784 99 768 l 91 932 q 210 926 129 932 q 331 921 290 921 l 711 921 q 833 926 751 921 q 957 932 915 932 q 948 692 957 857 q 939 465 939 527 q 942 221 939 315 q 957 0 945 127 l 829 5 q 756 2 808 5 q 698 0 703 0 q 707 63 704 33 q 710 130 710 93 l 713 504 l 710 813 l 515 818 l 336 813 q 333 643 336 762 q 331 516 331 523 l 336 130 q 345 0 336 59 q 278 2 322 0 q 215 5 234 5 l 91 0 q 98 146 91 40 q 105 284 105 252 "},"ΐ":{"x_min":-147,"x_max":552,"ha":396,"o":"m 92 126 l 92 543 l 80 666 q 139 661 105 663 q 197 658 173 658 q 265 660 239 658 q 315 666 292 663 q 305 586 308 616 q 302 523 302 557 l 302 113 q 303 72 302 88 q 315 0 305 56 l 196 4 l 82 0 q 88 67 85 30 q 92 126 92 104 m -65 961 q -7 935 -31 961 q 17 877 17 909 q -8 820 17 844 q -65 797 -33 797 q -121 820 -96 797 q -147 879 -147 844 q -123 935 -147 910 q -65 961 -99 961 m 275 1017 q 316 998 298 1017 q 334 957 334 980 q 321 919 334 935 q 283 886 307 903 l 94 755 l 36 755 l 182 950 q 225 998 204 980 q 275 1017 247 1017 m 470 961 q 528 935 504 961 q 552 877 552 910 q 528 820 552 844 q 471 797 504 797 q 413 820 438 797 q 388 879 388 844 q 412 936 388 912 q 470 961 436 961 "},"g":{"x_min":23,"x_max":714.671875,"ha":700,"o":"m 213 272 q 93 331 142 278 q 45 456 45 384 q 128 623 45 563 q 322 683 211 683 l 382 683 l 534 664 l 606 660 q 666 662 641 660 q 714 666 692 665 l 714 585 l 581 589 q 623 543 610 570 q 637 477 637 515 q 541 300 637 353 q 310 248 446 248 q 258 236 281 248 q 236 199 236 225 q 386 142 236 150 q 623 102 536 134 q 711 -68 711 71 q 591 -296 711 -218 q 313 -374 471 -374 q 111 -326 199 -374 q 23 -175 23 -279 q 63 -64 23 -110 q 171 -7 104 -19 l 171 0 q 103 39 130 7 q 76 112 76 70 q 117 201 76 163 q 213 251 159 239 l 213 272 m 169 -143 q 221 -255 169 -215 q 351 -295 274 -295 q 483 -254 427 -295 q 540 -139 540 -214 q 524 -81 540 -107 q 472 -40 508 -54 q 383 -19 437 -25 q 269 -13 330 -13 l 239 -12 q 169 -143 169 -54 m 332 304 q 411 351 392 304 q 431 472 431 399 q 413 581 431 536 q 341 626 395 626 q 267 578 287 626 q 247 466 247 530 q 262 350 247 396 q 332 304 277 304 "},"²":{"x_min":22,"x_max":465.0625,"ha":494,"o":"m 22 401 q 156 502 102 456 q 248 607 210 548 q 287 742 287 667 q 267 825 287 802 q 216 848 248 848 q 146 816 167 848 q 110 725 126 785 l 102 725 l 30 800 q 245 901 116 901 q 385 864 327 901 q 444 751 444 827 q 411 643 444 681 q 201 471 378 604 l 284 471 q 387 473 314 471 q 465 476 459 476 q 456 413 456 439 q 459 383 456 401 q 465 354 462 365 q 331 356 412 354 q 249 358 251 358 l 27 354 l 22 401 "},"Κ":{"x_min":90,"x_max":892.78125,"ha":856,"o":"m 334 716 l 334 515 l 569 787 q 635 866 619 845 q 682 932 651 886 l 767 926 q 817 929 784 926 q 870 932 851 932 q 687 746 790 851 q 503 554 585 641 l 623 377 q 892 0 753 179 l 753 5 q 664 2 727 5 q 595 0 600 0 q 484 190 545 98 q 334 404 424 281 l 334 193 q 348 0 334 94 q 270 2 325 0 q 212 5 215 5 l 90 0 q 99 236 90 69 q 108 461 108 402 q 103 623 108 515 q 99 787 99 731 l 90 932 q 157 927 113 932 q 219 922 201 922 q 282 925 252 922 q 342 932 312 927 q 338 831 342 907 q 334 716 334 755 "},"ë":{"x_min":41,"x_max":684.046875,"ha":729,"o":"m 482 98 q 566 112 532 98 q 643 160 600 126 l 661 151 q 643 96 652 125 q 628 40 634 66 q 521 -1 577 11 q 403 -15 466 -15 q 141 79 241 -15 q 41 336 41 173 q 137 586 41 490 q 386 683 234 683 q 608 601 532 683 q 684 373 684 520 l 684 332 l 267 332 q 325 165 267 232 q 482 98 383 98 m 233 976 q 300 948 272 976 q 328 878 328 920 q 303 811 328 839 q 236 784 278 784 q 166 811 194 784 q 138 878 138 838 q 166 947 138 918 q 233 976 194 976 m 493 976 q 560 948 532 976 q 588 878 588 920 q 562 811 588 838 q 496 784 536 784 q 427 811 455 784 q 399 878 399 838 q 426 946 399 917 q 493 976 454 976 m 478 411 q 481 444 481 422 q 459 566 481 513 q 377 620 438 620 q 292 562 318 620 q 267 437 267 505 l 267 411 l 478 411 "},"e":{"x_min":43,"x_max":686.046875,"ha":729,"o":"m 484 95 q 566 110 531 95 q 644 161 601 125 l 662 154 q 640 84 647 105 q 629 40 634 62 q 522 -1 577 11 q 404 -15 468 -15 q 141 77 240 -15 q 43 336 43 170 q 138 585 43 488 q 387 683 234 683 q 609 602 533 683 q 686 375 686 522 l 684 332 l 269 332 q 326 162 269 230 q 484 95 384 95 m 480 411 l 482 444 q 459 567 482 513 q 379 622 437 622 q 293 565 318 622 q 269 438 269 509 l 269 411 l 480 411 "},"ό":{"x_min":30,"x_max":741,"ha":774,"o":"m 395 683 q 645 587 550 683 q 741 337 741 492 q 646 79 741 173 q 385 -15 552 -15 q 127 78 225 -15 q 30 333 30 172 q 129 590 30 498 q 395 683 228 683 m 538 953 q 591 1001 571 986 q 639 1017 611 1017 q 692 994 671 1017 q 713 943 713 972 q 694 897 713 915 q 643 863 675 878 l 420 755 l 352 755 l 538 953 m 269 174 q 305 85 275 119 q 386 52 335 52 q 464 85 436 52 q 503 172 491 119 q 510 237 506 194 q 515 336 515 279 q 510 431 515 391 q 503 494 506 472 q 464 581 491 548 q 385 615 436 615 q 291 563 315 615 q 261 459 267 512 q 256 333 256 407 q 269 174 256 248 "},"J":{"x_min":-37,"x_max":356,"ha":447,"o":"m 214 926 q 293 929 237 926 q 356 932 349 932 q 349 680 356 857 q 342 450 342 502 q 344 314 342 411 q 346 213 346 218 l 346 105 q 249 -128 346 -36 q 10 -221 153 -221 l -24 -216 l -37 -143 l 13 -145 q 97 -94 76 -145 q 118 28 118 -44 l 118 219 q 110 619 118 352 q 103 931 103 886 l 214 926 "},"»":{"x_min":54.5625,"x_max":587.890625,"ha":629,"o":"m 187 330 l 54 604 l 110 656 l 339 333 l 110 9 l 54 66 l 187 330 m 437 330 l 304 604 l 358 656 l 587 333 l 358 9 l 304 66 l 437 330 "},"©":{"x_min":72,"x_max":1064,"ha":1138,"o":"m 1064 486 q 918 139 1064 285 q 570 -6 772 -6 q 220 139 369 -6 q 72 488 72 285 q 219 836 72 688 q 568 985 367 985 q 916 836 769 985 q 1064 486 1064 687 m 155 490 q 276 199 155 323 q 566 75 398 75 q 858 197 734 75 q 982 487 982 319 q 861 781 982 659 q 567 904 740 904 q 276 781 398 904 q 155 490 155 658 m 683 597 q 649 666 683 637 q 573 696 616 696 q 470 636 501 696 q 439 499 439 577 q 468 354 439 421 q 563 288 497 288 q 687 397 664 288 l 815 397 q 735 247 805 303 q 570 191 666 191 q 374 273 448 191 q 301 481 301 356 q 371 696 301 604 q 559 788 441 788 q 726 737 655 788 q 808 597 796 686 l 683 597 "},"ώ":{"x_min":30,"x_max":1059,"ha":1093,"o":"m 335 -15 q 111 79 192 -15 q 30 320 30 173 q 72 504 30 420 q 192 666 114 588 q 297 661 237 661 q 347 663 319 661 q 390 666 374 665 q 247 280 247 498 q 269 123 247 194 q 358 52 291 52 q 421 86 399 52 q 443 165 443 121 l 443 291 q 441 415 443 379 q 435 512 440 451 q 511 505 499 505 q 544 505 522 505 q 608 508 579 505 q 657 512 636 511 q 648 402 652 465 q 644 289 644 340 q 644 237 644 258 q 650 165 644 215 q 669 85 650 119 q 730 52 688 52 q 821 122 798 52 q 844 279 844 192 q 807 481 844 386 q 700 666 771 576 q 746 662 724 663 q 793 661 767 661 q 846 663 812 661 q 898 666 881 666 q 1016 508 974 594 q 1059 322 1059 422 q 974 83 1059 182 q 753 -15 890 -15 q 630 13 685 -15 q 545 100 575 41 q 459 14 516 44 q 335 -15 402 -15 m 684 953 q 737 1001 717 986 q 786 1017 757 1017 q 838 994 817 1017 q 859 943 859 972 q 840 897 859 915 q 790 863 821 878 l 567 755 l 498 755 l 684 953 "},"^":{"x_min":-3,"x_max":425,"ha":438,"o":"m 148 1003 l 270 1003 l 425 755 l 357 755 l 210 878 l 62 755 l -3 755 l 148 1003 "},"«":{"x_min":40.28125,"x_max":575,"ha":629,"o":"m 193 336 l 326 62 l 272 9 l 40 333 l 272 656 l 325 599 l 193 336 m 443 336 l 575 62 l 520 9 l 288 333 l 520 656 l 575 599 l 443 336 "},"D":{"x_min":87,"x_max":987,"ha":1032,"o":"m 104 221 l 104 465 q 100 742 104 650 q 89 932 97 834 l 216 929 l 283 929 l 442 929 q 532 929 488 929 q 622 929 576 929 q 894 797 802 912 q 987 496 987 682 q 832 110 987 221 q 389 -1 677 -1 l 201 -1 l 87 -1 q 98 119 93 60 q 104 221 104 178 m 415 89 q 659 192 580 89 q 738 468 738 296 q 663 746 738 653 q 407 839 588 839 l 334 839 l 330 605 l 334 98 q 374 91 353 94 q 415 89 394 89 "},"w":{"x_min":6.9375,"x_max":1048.625,"ha":1042,"o":"m 302 6 q 270 5 281 6 q 215 0 258 4 l 6 667 q 77 663 33 667 q 129 659 120 659 q 197 663 154 659 q 248 667 240 667 q 359 238 293 457 l 440 505 l 484 667 q 540 663 502 667 q 580 659 577 659 q 637 663 598 659 q 677 667 676 667 q 712 520 695 586 q 748 383 729 454 l 790 238 l 855 475 q 875 555 862 501 q 899 667 888 609 q 939 662 917 665 q 973 659 961 659 q 1017 662 998 659 q 1048 667 1036 665 l 956 423 l 812 0 q 759 4 776 3 q 727 6 743 6 q 678 3 712 6 q 643 0 644 0 l 562 288 l 522 423 q 391 0 455 221 q 336 4 354 3 q 302 6 318 6 "},"$":{"x_min":43,"x_max":697,"ha":749,"o":"m 43 79 q 104 254 76 165 l 128 254 q 202 128 150 177 q 331 79 254 79 l 331 365 q 108 474 168 409 q 49 623 49 539 q 130 807 49 737 q 331 889 211 878 q 322 1010 331 949 q 344 1006 329 1008 q 371 1002 360 1004 q 393 1004 382 1004 q 417 1010 403 1005 q 410 955 412 983 q 409 892 409 926 q 555 868 502 880 q 662 823 607 855 q 601 665 626 746 l 570 665 q 409 817 538 789 l 409 554 q 637 445 577 511 q 697 289 697 379 q 615 91 697 168 q 409 0 534 15 l 409 -62 q 409 -97 409 -84 q 411 -136 410 -109 l 368 -133 l 325 -136 q 328 -69 328 -112 q 331 0 329 -26 q 43 79 173 0 m 331 817 q 243 778 278 817 q 209 686 209 739 q 245 615 209 644 q 331 577 282 586 l 331 817 m 534 212 q 499 299 534 267 q 405 347 464 330 l 405 78 q 497 123 461 89 q 534 212 534 157 "},"\\":{"x_min":-31.953125,"x_max":422,"ha":383,"o":"m -31 1024 l 49 1024 l 422 -126 l 338 -126 l -31 1024 "},"Ι":{"x_min":94,"x_max":354,"ha":447,"o":"m 111 402 q 107 716 111 609 q 94 932 103 822 q 161 925 124 929 q 220 922 198 922 q 292 927 245 922 q 353 931 339 932 q 340 716 343 819 q 337 465 337 613 q 340 221 337 326 q 354 0 344 116 q 273 2 330 0 q 214 5 216 5 l 95 0 q 107 199 103 88 q 111 402 111 311 "},"Ύ":{"x_min":-28,"x_max":1295.609375,"ha":1247,"o":"m 635 650 q 566 772 622 672 q 469 931 509 872 l 591 926 q 683 929 619 926 q 755 931 748 931 q 844 740 803 825 q 941 554 885 656 q 1040 730 991 636 q 1135 931 1088 825 l 1210 926 q 1252 929 1224 926 q 1295 931 1280 931 q 1142 689 1213 812 q 997 420 1072 566 l 1001 143 l 1007 0 l 913 5 l 755 0 q 761 138 755 50 q 768 237 768 226 l 768 402 l 635 650 m 158 953 q 211 1001 191 986 q 259 1017 231 1017 q 312 994 291 1017 q 333 943 333 972 q 314 897 333 916 q 264 863 295 878 l 40 755 l -28 755 l 158 953 "},"Ν":{"x_min":86,"x_max":930.453125,"ha":1010,"o":"m 101 444 q 97 645 101 523 q 94 787 94 768 l 90 931 l 177 926 l 268 934 q 526 623 395 775 q 792 327 657 470 l 792 584 q 787 766 792 643 q 782 931 782 888 q 825 927 811 929 q 854 926 838 926 q 890 927 876 926 q 930 934 904 929 q 919 838 923 889 q 915 738 915 788 q 913 461 915 600 q 911 184 912 322 q 913 106 911 147 q 920 0 915 66 q 876 4 901 2 q 838 6 851 6 q 794 4 812 6 q 756 0 777 2 q 495 309 631 151 q 220 618 359 466 l 220 241 l 227 0 q 194 4 213 1 q 159 6 175 6 q 119 4 134 6 q 86 0 103 2 q 97 208 94 105 q 101 444 101 311 "},"-":{"x_min":58.71875,"x_max":386.5,"ha":447,"o":"m 65 334 q 62 383 65 352 q 58 422 58 415 l 386 422 l 379 333 l 386 247 l 58 247 q 62 296 58 265 q 65 334 65 327 "},"Q":{"x_min":40,"x_max":1098.328125,"ha":1129,"o":"m 40 456 q 190 819 40 689 q 577 949 340 949 q 945 829 804 949 q 1086 486 1086 709 q 1004 185 1086 313 q 759 10 922 56 l 883 -72 q 1098 -182 979 -129 l 1098 -200 q 1005 -241 1053 -216 q 906 -294 956 -265 q 737 -160 824 -226 q 533 -13 649 -94 q 174 110 308 -13 q 40 456 40 233 m 562 72 q 773 193 706 72 q 840 472 840 315 q 773 741 840 623 q 566 860 706 860 q 354 741 421 860 q 287 465 287 622 q 353 192 287 312 q 562 72 420 72 "},"ς":{"x_min":48,"x_max":647,"ha":689,"o":"m 421 600 q 306 538 350 600 q 263 404 263 477 q 357 244 263 304 q 532 151 445 197 q 627 -17 627 88 q 527 -214 627 -140 q 302 -288 427 -288 q 291 -198 302 -247 q 318 -203 296 -198 q 353 -207 341 -207 q 440 -176 402 -207 q 484 -95 478 -145 q 324 60 484 -17 q 106 179 164 139 q 48 353 48 219 q 153 590 48 500 q 409 681 259 681 q 527 666 470 681 q 647 623 584 651 q 616 532 626 561 q 597 465 606 504 l 559 465 q 513 563 546 526 q 421 600 479 600 "},"M":{"x_min":32,"x_max":1165,"ha":1217,"o":"m 105 465 l 168 932 q 211 927 190 929 q 261 926 231 926 q 309 929 277 926 q 358 932 341 932 q 441 709 409 790 q 503 559 473 629 q 608 316 533 488 l 778 690 q 872 932 834 808 q 919 929 887 932 q 966 926 951 926 q 1027 929 1006 926 q 1059 932 1048 932 l 1105 473 q 1130 240 1117 354 q 1165 0 1144 127 q 1095 3 1140 0 q 1041 6 1051 6 q 969 3 1015 6 q 915 0 924 0 q 895 291 915 142 l 865 616 q 731 317 802 480 q 597 0 661 153 l 551 0 l 500 0 q 409 218 465 87 q 317 426 352 349 q 236 605 282 504 l 196 229 q 185 108 190 173 q 180 0 180 44 q 134 3 165 0 q 100 6 102 6 q 60 4 77 6 q 32 0 43 1 q 105 465 77 258 "},"Ψ":{"x_min":84,"x_max":1097.890625,"ha":1185,"o":"m 307 708 q 307 639 307 686 q 307 569 307 593 q 342 407 307 462 q 478 353 377 353 l 480 484 q 472 735 480 568 q 464 932 464 903 q 530 925 494 929 q 587 922 566 922 q 658 927 612 922 q 719 931 705 932 q 712 777 719 877 q 706 666 706 677 l 702 353 q 800 378 761 353 q 853 457 839 404 q 871 582 868 511 q 875 670 875 652 q 868 811 875 720 q 861 931 861 901 q 926 927 881 931 q 984 922 970 922 q 1039 926 1002 922 q 1097 930 1077 930 q 1093 869 1094 904 q 1092 801 1092 834 l 1092 738 l 1092 687 l 1092 610 q 992 354 1092 432 q 702 261 892 277 q 710 126 702 219 q 719 0 719 33 q 646 3 691 0 q 591 6 601 6 q 516 3 562 6 q 464 0 470 0 q 472 134 464 40 q 480 261 480 229 q 188 358 287 261 q 90 651 90 455 l 90 804 l 90 820 q 84 930 90 881 q 139 926 102 930 q 196 922 177 922 q 257 927 219 922 q 322 931 295 931 q 311 813 316 876 q 307 708 307 750 "},"C":{"x_min":43,"x_max":891.84375,"ha":900,"o":"m 587 856 q 363 744 442 856 q 285 479 285 632 q 361 202 285 322 q 586 82 437 82 q 740 108 668 82 q 855 194 812 135 l 877 184 q 861 120 868 152 q 846 45 854 88 q 710 -2 786 12 q 555 -18 634 -18 q 184 109 326 -18 q 43 464 43 236 q 190 819 43 690 q 569 949 338 949 q 723 932 652 949 q 891 876 793 915 q 866 793 879 840 q 846 710 852 746 l 827 710 q 734 818 799 781 q 587 856 669 856 "},"œ":{"x_min":36,"x_max":1154.0625,"ha":1197,"o":"m 387 -15 q 131 79 227 -15 q 36 334 36 173 q 131 586 36 490 q 383 683 226 683 q 630 606 515 683 q 735 664 677 645 q 859 683 792 683 q 1076 600 999 683 q 1154 377 1154 517 l 1152 332 l 736 332 q 793 165 736 232 q 951 98 851 98 q 1111 160 1042 98 l 1127 151 q 1111 101 1116 119 q 1094 40 1105 83 q 990 -1 1049 11 q 870 -15 931 -15 q 735 2 794 -15 q 628 68 676 20 q 521 4 584 23 q 387 -15 458 -15 m 949 411 l 949 445 q 921 580 949 541 q 844 620 893 620 q 756 557 777 620 q 736 411 736 494 l 949 411 m 276 171 q 315 80 286 115 q 395 45 344 45 q 453 62 424 45 q 498 115 481 79 q 520 204 514 151 q 526 329 526 257 q 516 475 526 408 q 476 577 506 542 q 394 612 445 612 q 294 552 327 612 q 271 470 279 520 q 264 329 264 420 q 266 244 264 269 q 276 171 268 219 "},"!":{"x_min":103,"x_max":341,"ha":444,"o":"m 222 221 q 306 187 271 221 q 341 104 341 154 q 306 19 341 54 q 222 -15 271 -15 q 138 19 173 -15 q 103 103 103 53 q 137 186 103 151 q 222 221 172 221 m 113 818 q 142 910 113 872 q 224 949 171 949 q 304 921 274 949 q 334 847 334 894 q 325 741 334 796 q 306 628 317 687 l 276 462 q 253 296 259 369 l 193 296 q 113 818 153 557 "},"ç":{"x_min":36,"x_max":622,"ha":660,"o":"m 423 600 q 306 528 346 600 q 267 373 267 457 q 313 176 267 265 q 459 88 359 88 q 542 99 500 88 q 612 133 584 111 l 622 126 l 590 19 q 502 -6 551 1 q 406 -15 453 -15 q 141 76 247 -15 q 36 325 36 168 q 140 583 36 485 q 408 681 245 681 q 622 637 519 681 q 590 459 602 550 l 565 459 q 519 561 555 522 q 423 600 483 600 m 175 -203 q 276 -231 251 -226 q 332 -236 301 -236 q 381 -223 361 -236 q 402 -184 402 -211 q 384 -144 402 -161 q 341 -128 366 -128 q 319 -130 328 -128 q 301 -135 310 -132 l 301 2 l 358 2 l 358 -77 l 418 -75 q 496 -108 465 -80 q 527 -183 527 -136 q 487 -274 527 -239 q 388 -310 448 -310 q 268 -299 326 -310 q 151 -265 211 -289 l 175 -203 "},"{":{"x_min":104,"x_max":587.328125,"ha":683,"o":"m 587 844 l 540 844 q 468 821 487 844 q 446 785 449 798 q 443 752 443 773 l 443 712 l 443 552 q 416 424 443 464 q 304 353 390 383 q 413 287 383 335 q 443 155 443 238 l 443 -5 q 465 -105 443 -74 q 555 -136 488 -136 l 587 -136 l 587 -277 l 481 -275 q 343 -234 396 -268 q 280 -122 289 -200 l 280 -50 l 280 116 q 246 238 280 194 q 137 283 212 283 l 104 283 l 104 422 q 240 458 201 422 q 280 588 280 494 l 280 756 l 280 831 q 355 951 292 919 q 517 983 417 983 l 587 983 l 587 844 "},"X":{"x_min":-1.390625,"x_max":801.390625,"ha":782,"o":"m 169 241 l 301 436 l 15 932 q 94 929 38 932 q 155 926 150 926 q 235 929 179 926 q 298 932 291 932 q 314 893 308 907 q 358 802 320 880 l 445 638 q 547 805 513 748 q 613 932 581 862 q 655 929 627 932 q 698 926 683 926 q 740 929 712 926 q 783 932 768 932 q 685 800 709 833 q 616 701 661 766 l 502 531 l 801 0 q 713 2 776 0 q 647 5 651 5 l 516 0 l 470 108 l 356 326 q 265 174 316 263 q 170 0 215 84 q 118 3 154 0 q 77 6 81 6 q 31 4 52 6 q -1 0 11 1 l 169 241 "},"ô":{"x_min":32,"x_max":743,"ha":775,"o":"m 395 683 q 647 588 551 683 q 743 337 743 494 q 648 79 743 173 q 387 -15 554 -15 q 129 78 227 -15 q 32 333 32 172 q 130 590 32 497 q 395 683 229 683 m 325 1003 l 450 1003 l 601 755 l 534 755 l 387 878 l 238 755 l 174 755 l 325 1003 m 269 174 q 307 85 277 120 q 387 50 337 50 q 466 84 437 50 q 500 156 494 119 q 511 215 507 194 q 517 335 517 271 q 511 450 517 395 q 500 509 507 471 q 466 582 494 548 q 387 616 439 616 q 294 564 319 616 q 263 459 269 513 q 258 333 258 406 q 260 244 258 270 q 269 174 262 217 "},"#":{"x_min":30,"x_max":1019,"ha":1049,"o":"m 619 974 l 522 698 l 684 698 l 781 974 l 930 975 l 831 698 l 1019 699 l 970 564 l 783 563 l 725 403 l 920 403 l 873 271 l 678 271 l 579 -5 l 432 -5 l 530 271 l 367 271 l 270 -5 l 121 -5 l 220 270 l 30 271 l 79 403 l 268 403 l 326 563 l 127 564 l 174 699 l 374 698 l 472 975 l 619 974 m 414 402 l 582 402 l 639 563 l 470 563 l 414 402 "},"ι":{"x_min":80,"x_max":314.71875,"ha":396,"o":"m 91 126 l 91 543 l 80 667 q 139 661 105 664 q 196 658 173 658 q 264 661 238 658 q 314 666 291 663 q 304 587 307 616 q 301 523 301 558 l 301 113 q 302 72 301 88 q 314 0 304 56 l 195 4 l 81 0 q 87 67 84 30 q 91 126 91 104 "},"Ά":{"x_min":-28,"x_max":983.109375,"ha":963,"o":"m 242 322 q 326 529 276 400 q 411 751 377 659 q 484 948 445 843 l 553 944 l 623 948 q 805 450 717 684 q 983 0 892 215 l 849 4 l 713 0 l 684 91 l 630 259 q 531 261 581 259 q 433 264 481 262 l 335 259 q 245 0 295 134 l 155 4 l 103 0 l 242 322 m 158 953 q 211 1001 191 986 q 259 1017 231 1017 q 312 994 291 1017 q 333 943 333 972 q 314 897 333 916 q 265 863 295 878 l 40 755 l -28 755 l 158 953 m 487 368 l 597 368 q 549 509 573 446 q 488 662 526 572 q 376 370 428 519 l 487 368 "},")":{"x_min":72.21875,"x_max":383,"ha":449,"o":"m 227 366 q 191 656 227 521 q 76 906 156 792 l 120 949 q 317 691 252 826 q 383 382 383 555 q 317 63 383 201 q 115 -201 252 -75 l 72 -158 q 191 81 156 -48 q 227 366 227 211 "},"ε":{"x_min":55,"x_max":599,"ha":657,"o":"m 512 502 q 472 579 502 548 q 396 611 442 611 q 323 577 352 611 q 295 499 295 544 q 317 429 295 460 q 377 394 340 399 l 449 394 l 449 373 q 449 336 449 349 q 449 316 449 323 q 413 319 438 319 q 322 281 362 319 q 283 195 283 244 q 323 101 283 144 q 412 59 363 59 q 498 88 461 59 q 571 167 535 117 l 599 155 q 593 130 595 144 q 592 104 592 115 q 592 82 592 90 q 599 53 592 74 q 351 -15 485 -15 q 145 30 236 -15 q 55 176 55 75 q 105 289 55 244 q 232 360 155 335 q 127 421 166 385 q 88 516 88 456 q 165 643 88 603 q 340 683 243 683 q 592 612 479 683 q 565 556 576 583 q 551 502 554 530 l 512 502 "},"Δ":{"x_min":11,"x_max":958.328125,"ha":972,"o":"m 490 926 q 531 928 509 926 q 566 932 554 930 q 690 599 633 746 q 815 296 747 452 q 958 0 884 140 q 720 3 879 0 q 481 8 562 8 q 247 3 404 8 q 11 0 90 0 q 234 470 126 223 q 415 932 342 716 q 448 928 429 930 q 490 926 468 926 m 314 373 q 217 127 262 259 q 425 118 314 118 q 542 122 468 118 q 636 127 616 127 q 598 232 616 184 q 538 391 580 280 l 433 645 l 314 373 "},"â":{"x_min":44,"x_max":706.78125,"ha":706,"o":"m 237 -15 q 98 35 153 -15 q 44 169 44 86 q 212 352 44 301 q 401 421 380 403 q 410 439 410 432 q 373 539 410 502 q 275 577 337 577 q 140 511 185 577 l 135 511 l 115 585 q 230 657 164 632 q 365 683 296 683 q 543 623 479 683 q 608 452 608 564 l 604 213 q 604 166 604 184 q 608 123 604 148 q 625 87 612 99 q 658 76 638 76 q 679 80 666 76 q 702 90 691 84 l 706 40 q 643 1 676 14 q 566 -15 610 -10 q 482 5 520 -15 q 421 64 443 25 q 237 -15 351 -15 m 291 1003 l 413 1003 l 566 755 l 501 755 l 350 878 l 203 755 l 138 755 l 291 1003 m 240 200 q 261 128 240 158 q 321 99 282 99 q 388 131 367 99 q 410 211 410 164 l 410 352 q 287 302 335 338 q 240 200 240 267 "},"}":{"x_min":93,"x_max":579,"ha":683,"o":"m 126 983 q 323 955 243 983 q 403 831 403 927 l 403 756 l 403 588 q 423 478 403 512 q 473 434 443 444 q 539 423 504 424 q 579 422 574 422 l 579 283 q 442 249 481 283 q 403 116 403 216 l 403 -50 q 373 -204 403 -147 q 284 -267 343 -260 q 179 -275 225 -274 q 93 -277 133 -277 l 93 -137 q 201 -121 163 -137 q 240 -43 240 -105 l 240 -4 l 240 155 q 269 285 240 241 q 380 353 298 328 q 268 421 296 378 q 240 553 240 463 l 240 713 q 227 805 240 771 q 166 844 215 838 l 93 844 l 93 983 l 126 983 "},"Ä":{"x_min":-28,"x_max":848.390625,"ha":829,"o":"m 109 323 q 187 512 148 413 q 274 740 225 611 q 350 948 323 870 l 420 945 l 492 948 q 666 463 583 687 q 848 0 749 240 l 718 2 l 579 0 l 551 91 l 497 259 q 399 261 448 259 q 300 264 349 262 l 202 259 l 113 0 q 74 2 95 2 q 42 2 53 2 l 21 2 l -28 0 l 109 323 m 284 1242 q 351 1214 323 1242 q 380 1148 380 1187 q 353 1079 380 1108 q 286 1050 327 1050 q 216 1077 245 1050 q 187 1148 187 1105 q 215 1214 187 1187 q 284 1242 243 1242 m 543 1242 q 611 1215 583 1242 q 639 1148 639 1189 q 613 1078 639 1107 q 546 1050 587 1050 q 478 1077 507 1050 q 449 1148 449 1105 q 476 1214 449 1186 q 543 1242 504 1242 m 352 368 l 462 368 q 414 511 437 450 q 350 662 390 571 q 243 370 296 516 l 352 368 "},"a":{"x_min":47,"x_max":708.15625,"ha":706,"o":"m 237 -15 q 100 35 154 -15 q 47 169 47 86 q 213 352 47 301 q 403 422 380 404 q 410 440 410 433 q 373 541 410 504 q 273 579 337 579 q 197 561 232 579 q 140 509 162 544 l 135 509 l 114 585 q 364 683 218 683 q 541 624 478 683 q 604 452 604 566 l 604 214 q 604 169 604 191 q 606 119 604 148 q 656 76 616 76 q 677 79 665 76 q 702 89 690 83 l 708 40 q 563 -11 644 -11 q 479 7 516 -11 q 421 64 441 26 q 339 4 387 23 q 237 -15 291 -15 m 240 198 q 261 127 240 158 q 322 97 282 97 q 388 131 367 97 q 410 212 410 165 l 410 351 q 287 301 334 337 q 240 198 240 266 "},"=":{"x_min":169.4375,"x_max":968.0625,"ha":1138,"o":"m 968 615 l 968 484 l 169 484 l 169 615 l 968 615 m 968 329 l 968 196 l 169 196 l 169 329 l 968 329 "},"N":{"x_min":86,"x_max":930.453125,"ha":1010,"o":"m 101 444 q 97 645 101 523 q 94 787 94 768 l 90 931 l 177 926 l 268 934 q 526 623 395 775 q 792 327 657 470 l 792 584 q 787 766 792 643 q 782 931 782 888 q 825 927 811 929 q 854 926 838 926 q 890 927 876 926 q 930 934 904 929 q 919 838 923 889 q 915 738 915 788 q 913 461 915 600 q 911 184 912 322 q 913 106 911 147 q 920 0 915 66 q 876 4 901 2 q 838 6 851 6 q 794 4 812 6 q 756 0 777 2 q 495 309 631 151 q 220 618 359 466 l 220 241 l 227 0 q 194 4 213 1 q 159 6 175 6 q 119 4 134 6 q 86 0 103 2 q 97 208 94 105 q 101 444 101 311 "},"ρ":{"x_min":48,"x_max":759,"ha":793,"o":"m 160 -366 q 48 -374 109 -366 q 52 -291 48 -343 q 56 -223 56 -239 l 56 169 l 48 314 q 139 585 48 488 q 403 683 231 683 q 661 589 563 683 q 759 336 759 495 q 681 89 759 194 q 465 -15 603 -15 q 266 65 346 -15 l 264 -208 q 265 -268 264 -241 q 275 -373 267 -295 q 197 -367 220 -368 q 160 -366 173 -366 m 275 347 q 284 196 275 264 q 324 109 295 142 q 404 77 352 77 q 494 120 473 77 q 522 212 514 164 q 531 347 531 260 q 526 431 531 388 q 517 511 522 473 q 483 582 512 549 q 401 615 453 615 q 309 566 340 615 q 279 452 279 517 q 275 372 275 412 l 275 347 "},"2":{"x_min":33,"x_max":706.625,"ha":749,"o":"m 33 75 q 236 249 152 168 q 379 431 321 330 q 438 652 438 533 q 413 772 438 723 q 325 822 389 822 q 220 767 251 822 q 170 616 189 712 l 155 616 q 44 743 107 691 q 189 867 105 823 q 373 911 273 911 q 586 847 500 911 q 673 658 673 783 q 619 480 673 548 q 304 196 566 411 l 430 195 l 553 195 l 706 201 q 689 94 689 148 q 696 38 689 66 q 706 0 703 11 q 514 3 630 0 q 380 7 399 7 q 181 3 302 7 q 44 0 60 0 l 33 75 "},"ü":{"x_min":75,"x_max":722,"ha":808,"o":"m 292 -15 q 142 41 202 -15 q 83 188 83 98 l 83 337 q 79 508 83 394 q 75 666 75 623 q 134 660 108 662 q 185 658 160 658 q 240 660 209 658 q 300 666 271 663 q 290 454 290 569 l 290 384 l 290 279 q 316 146 290 181 q 394 111 343 111 q 467 147 441 111 q 501 234 493 184 l 501 330 q 498 498 501 385 q 495 666 495 610 q 554 660 518 663 q 613 658 589 658 q 671 660 640 658 q 722 666 701 663 q 717 479 722 598 q 712 326 712 359 q 717 156 712 270 q 722 1 722 43 l 617 4 l 511 1 l 511 96 q 410 15 468 46 q 292 -15 353 -15 m 273 976 q 338 948 310 976 q 366 878 366 920 q 339 811 366 839 q 274 784 313 784 q 205 811 234 784 q 176 878 176 839 q 204 947 176 918 q 273 976 232 976 m 531 976 q 599 948 571 976 q 627 878 627 920 q 599 812 627 841 q 533 784 572 784 q 464 811 495 784 q 434 878 434 839 q 462 947 434 918 q 531 976 490 976 "},"Z":{"x_min":25,"x_max":831.953125,"ha":831,"o":"m 25 54 q 186 311 81 142 q 354 582 291 480 q 495 813 418 685 l 294 813 q 98 801 186 813 l 105 852 q 98 932 105 894 l 444 926 q 657 928 509 926 q 815 931 805 931 l 815 903 q 573 517 695 715 q 331 119 451 320 l 566 119 q 706 122 654 119 q 831 136 758 125 q 826 43 826 96 l 827 0 q 606 3 761 0 q 443 6 451 6 q 203 3 370 6 q 25 0 36 0 l 25 54 "},"u":{"x_min":75,"x_max":722,"ha":808,"o":"m 292 -15 q 141 41 200 -15 q 83 189 83 97 l 83 336 q 79 508 83 393 q 75 667 75 624 q 140 659 109 662 q 185 656 171 656 q 251 661 218 656 q 299 666 285 665 l 290 454 l 290 382 l 290 279 q 316 147 290 182 q 393 112 343 112 q 464 146 441 112 q 497 234 488 181 l 501 331 q 497 498 501 387 q 493 667 493 610 q 563 659 531 662 q 612 656 594 656 q 672 661 640 656 q 722 666 703 665 q 716 495 722 609 q 711 326 711 381 q 716 163 711 272 q 722 1 722 55 l 616 4 l 511 1 l 511 94 q 411 15 470 45 q 292 -15 353 -15 "},"k":{"x_min":80,"x_max":732.765625,"ha":756,"o":"m 93 550 q 86 827 93 648 q 80 1024 80 1005 q 184 1018 125 1018 q 307 1023 252 1018 q 301 812 307 959 q 296 602 296 665 l 296 389 q 424 511 368 445 q 545 666 481 576 q 595 665 562 666 q 645 663 628 663 l 709 666 l 714 656 l 628 576 l 475 425 q 636 154 543 304 l 732 0 q 661 3 706 0 q 607 6 616 6 q 537 3 580 6 q 487 0 494 0 q 386 174 441 83 q 296 329 332 266 q 299 141 296 273 q 302 0 302 9 l 191 4 l 80 0 q 86 320 80 113 q 93 550 93 526 "},"Η":{"x_min":91,"x_max":955,"ha":1049,"o":"m 105 286 l 105 459 q 101 650 105 533 q 98 784 98 766 l 91 932 q 156 926 125 929 q 214 923 187 923 q 277 926 241 923 q 344 931 314 929 q 339 818 344 894 q 334 713 334 741 l 334 563 l 514 561 l 710 561 l 710 712 q 707 812 710 778 q 697 932 705 846 q 764 926 727 929 q 828 923 800 923 q 889 926 854 923 q 955 931 924 929 q 948 690 955 856 q 941 465 941 523 q 948 225 941 391 q 955 0 955 58 l 828 5 q 764 2 807 5 q 698 0 721 0 q 707 99 704 47 q 710 202 710 152 l 710 444 q 595 447 665 444 q 514 451 525 451 q 411 447 475 451 q 334 444 346 444 l 334 202 q 339 97 334 167 q 344 0 344 26 q 270 2 323 0 q 214 5 218 5 l 91 0 q 98 146 91 40 q 105 286 105 252 "},"Α":{"x_min":-29.171875,"x_max":850,"ha":829,"o":"m 109 322 q 193 530 143 400 q 278 751 244 660 q 351 949 312 843 l 420 944 l 490 949 q 672 450 584 685 q 850 0 759 215 l 716 4 l 580 0 l 551 91 l 497 259 q 398 261 448 259 q 300 264 348 262 l 202 259 q 112 0 162 134 l 22 4 l -29 0 l 109 322 m 354 368 l 464 368 q 416 509 440 446 q 355 662 393 572 q 243 370 295 519 l 354 368 "},"ß":{"x_min":84,"x_max":776,"ha":811,"o":"m 198 4 l 84 1 q 87 120 84 45 q 91 212 91 195 l 91 352 l 91 651 q 167 928 91 832 q 420 1024 243 1024 q 603 985 522 1024 q 684 854 684 946 q 607 713 684 786 q 530 601 530 640 q 543 563 530 583 q 574 533 556 543 l 688 447 q 776 275 776 379 q 690 67 776 150 q 478 -15 605 -15 q 373 8 428 -15 l 403 161 l 417 161 q 461 88 435 113 q 535 64 488 64 q 600 91 574 64 q 626 157 626 118 q 504 316 626 219 q 377 476 383 413 q 459 650 377 547 q 542 822 542 754 q 511 908 542 873 q 428 943 481 943 q 327 892 361 943 q 294 770 294 841 q 296 495 294 602 q 301 238 298 387 q 304 1 304 88 l 198 4 "},"é":{"x_min":41,"x_max":684.046875,"ha":729,"o":"m 482 98 q 566 112 532 98 q 643 160 600 126 l 661 151 q 643 96 652 125 q 628 40 634 66 q 521 -1 577 11 q 403 -15 466 -15 q 141 79 241 -15 q 41 336 41 173 q 137 586 41 490 q 386 683 234 683 q 608 601 532 683 q 684 373 684 520 l 684 332 l 267 332 q 325 165 267 232 q 482 98 383 98 m 409 951 q 459 1000 436 983 q 511 1017 481 1017 q 563 994 542 1017 q 585 943 585 971 q 565 895 585 915 q 515 861 545 875 l 292 754 l 223 754 l 409 951 m 478 411 q 481 444 481 422 q 459 566 481 513 q 377 620 438 620 q 292 562 318 620 q 267 437 267 505 l 267 411 l 478 411 "},"s":{"x_min":43,"x_max":543,"ha":583,"o":"m 95 197 q 155 95 115 133 q 256 57 195 57 q 338 77 300 57 q 376 140 376 98 q 213 259 376 195 q 51 456 51 323 q 129 623 51 563 q 319 683 208 683 q 411 671 366 683 q 515 638 455 660 l 464 485 l 450 485 q 397 575 433 542 q 303 608 362 608 q 234 588 264 608 q 205 530 205 569 q 374 417 205 478 q 543 227 543 356 q 464 48 543 112 q 266 -15 386 -15 q 148 -6 201 -15 q 43 26 95 3 l 76 197 l 95 197 "},"B":{"x_min":91,"x_max":773,"ha":815,"o":"m 109 208 l 109 465 q 105 714 109 605 q 91 932 102 823 l 250 929 l 417 929 q 655 881 560 929 q 751 707 751 834 q 692 566 751 618 q 542 503 634 515 l 542 491 q 704 431 636 491 q 773 276 773 372 q 678 69 773 138 q 438 0 584 0 l 250 4 q 152 2 211 4 q 91 0 92 0 q 103 104 97 51 q 109 208 109 158 m 519 698 q 479 803 519 763 q 374 844 440 844 l 335 839 q 331 687 331 766 l 331 540 q 466 578 413 540 q 519 698 519 617 m 380 87 q 490 137 450 87 q 531 258 531 187 q 484 392 531 338 q 360 446 437 446 l 331 446 l 331 276 l 335 91 l 380 87 "},"?":{"x_min":93,"x_max":539,"ha":597,"o":"m 295 221 q 377 186 340 221 q 414 104 414 152 q 378 23 414 61 q 295 -15 343 -15 q 210 19 245 -15 q 175 103 175 53 q 211 183 175 146 q 295 221 247 221 m 433 288 q 378 277 411 280 q 339 275 344 275 q 201 329 261 275 q 142 459 142 383 q 238 620 142 530 q 335 777 335 709 q 310 838 335 812 q 252 864 286 864 q 175 838 211 864 q 119 775 138 813 l 101 777 q 93 891 101 843 q 294 949 181 949 q 467 890 395 949 q 539 730 539 832 q 429 554 539 644 q 320 407 320 464 q 338 363 320 378 q 386 349 357 349 q 421 353 403 349 q 448 358 439 357 l 433 288 "},"H":{"x_min":91,"x_max":957,"ha":1049,"o":"m 105 284 l 105 461 q 101 651 105 534 q 98 787 98 768 l 91 932 q 153 927 107 932 q 222 922 200 922 q 288 926 252 922 q 345 932 324 930 q 336 827 339 886 q 334 712 334 769 l 334 564 l 515 560 l 710 564 l 710 712 q 699 932 710 833 q 767 927 721 932 q 829 922 813 922 q 895 927 851 922 q 956 932 940 932 q 943 702 947 829 q 939 461 939 576 q 942 217 939 306 q 957 0 945 128 q 883 3 930 0 q 829 6 837 6 q 755 3 804 6 q 698 0 706 0 q 707 97 704 35 q 710 201 710 158 l 710 445 q 599 447 676 445 q 515 450 522 450 l 334 445 l 334 201 q 336 88 334 120 q 345 0 338 56 q 278 2 322 0 q 215 5 234 5 q 153 2 194 5 q 91 0 111 0 q 98 146 91 40 q 105 284 105 252 "},"ν":{"x_min":9,"x_max":658,"ha":694,"o":"m 470 438 q 463 504 470 477 q 422 642 457 532 q 641 671 528 660 q 658 582 658 626 q 614 412 658 494 l 541 270 q 462 107 487 161 q 417 0 438 53 q 374 3 403 0 q 331 8 345 8 q 289 3 317 8 q 246 0 261 0 q 165 236 209 110 q 85 458 121 361 q 9 667 49 555 q 72 661 40 664 q 128 659 103 659 q 184 661 152 659 q 245 666 217 664 q 403 184 300 449 q 454 328 438 275 q 470 438 470 381 "},"î":{"x_min":-15,"x_max":413,"ha":396,"o":"m 93 126 l 93 543 q 87 602 93 558 q 82 666 82 645 q 141 661 111 664 q 198 659 172 659 q 255 661 223 659 q 316 666 287 664 q 311 621 315 658 q 303 544 307 584 l 303 319 q 305 144 303 212 q 316 0 307 76 l 196 2 l 81 0 q 93 126 93 66 m 136 1003 l 258 1003 l 413 755 l 345 755 l 198 878 l 50 755 l -15 755 l 136 1003 "},"c":{"x_min":36,"x_max":623.109375,"ha":660,"o":"m 421 600 q 306 530 344 600 q 268 376 268 461 q 313 177 268 266 q 459 88 359 88 q 539 99 498 88 q 608 135 580 111 l 617 126 l 587 21 q 500 -5 546 3 q 404 -15 454 -15 q 140 76 245 -15 q 36 324 36 168 q 140 583 36 484 q 406 683 245 683 q 623 638 514 683 q 607 570 617 620 q 587 462 596 520 l 562 462 q 515 561 550 522 q 421 600 480 600 "},"¶":{"x_min":18,"x_max":531,"ha":590,"o":"m 298 968 l 531 968 l 531 910 l 473 910 l 473 4 l 415 4 l 415 910 l 305 910 l 305 4 l 247 4 l 247 558 q 99 601 163 558 q 27 690 36 645 q 18 744 18 734 q 90 896 18 824 q 298 968 163 968 "},"β":{"x_min":82,"x_max":753,"ha":828,"o":"m 91 -115 q 86 188 91 -19 q 82 493 82 397 q 85 654 82 597 q 102 796 88 711 q 205 951 115 882 q 421 1021 294 1021 q 626 953 540 1021 q 713 770 713 886 q 671 634 713 690 q 553 542 629 579 q 700 438 647 506 q 753 273 753 369 q 680 68 753 152 q 490 -15 608 -15 q 390 0 435 -15 q 298 50 345 16 l 298 -105 l 306 -371 q 246 -365 278 -368 q 192 -362 214 -362 q 138 -365 169 -362 q 82 -370 108 -368 q 86 -238 82 -327 q 91 -115 91 -148 m 372 572 q 474 623 445 572 q 503 757 503 674 q 484 897 503 839 q 403 956 466 956 q 332 908 354 956 q 305 807 310 861 q 299 683 300 752 q 298 551 298 613 l 298 269 q 320 131 298 188 q 412 75 343 75 q 501 135 477 75 q 525 273 525 195 q 496 431 525 377 q 372 486 467 486 l 372 572 "},"Μ":{"x_min":32,"x_max":1165,"ha":1217,"o":"m 105 465 l 168 932 q 211 927 190 929 q 261 926 231 926 q 309 929 277 926 q 358 932 341 932 q 441 709 409 790 q 503 559 473 629 q 608 316 533 488 l 778 690 q 872 932 834 808 q 919 929 887 932 q 966 926 951 926 q 1027 929 1006 926 q 1059 932 1048 932 l 1105 473 q 1130 240 1117 354 q 1165 0 1144 127 q 1095 3 1140 0 q 1041 6 1051 6 q 969 3 1015 6 q 915 0 924 0 q 895 291 915 142 l 865 616 q 731 317 802 480 q 597 0 661 153 l 551 0 l 500 0 q 409 218 465 87 q 317 426 352 349 q 236 605 282 504 l 196 229 q 185 108 190 173 q 180 0 180 44 q 134 3 165 0 q 100 6 102 6 q 60 4 77 6 q 32 0 43 1 q 105 465 77 258 "},"Ό":{"x_min":-28,"x_max":1364,"ha":1407,"o":"m 855 949 q 1223 829 1082 949 q 1364 486 1364 710 q 1220 114 1364 244 q 830 -15 1076 -15 q 454 107 591 -15 q 318 465 318 229 q 466 823 318 697 q 855 949 615 949 m 158 953 q 211 1001 191 986 q 259 1017 231 1017 q 312 994 291 1017 q 333 943 333 972 q 314 897 333 916 q 265 863 295 878 l 40 755 l -28 755 l 158 953 m 840 73 q 1051 194 984 73 q 1118 472 1118 315 q 1051 742 1118 624 q 844 860 984 860 q 631 742 698 860 q 565 465 565 624 q 631 193 565 313 q 840 73 698 73 "},"Ή":{"x_min":-28,"x_max":1333.109375,"ha":1424,"o":"m 482 284 l 482 460 q 478 651 482 534 q 474 787 474 768 l 468 931 q 530 927 484 931 q 599 922 577 922 q 665 926 629 922 q 722 931 701 930 q 713 827 716 886 q 711 711 711 769 l 711 563 l 891 560 l 1086 564 l 1086 712 q 1075 931 1086 833 q 1143 927 1097 931 q 1205 922 1190 922 q 1272 927 1227 922 q 1333 931 1316 931 q 1319 702 1323 829 q 1315 460 1315 576 q 1318 217 1315 306 q 1333 0 1321 128 q 1260 3 1306 0 q 1205 6 1213 6 q 1131 3 1180 6 q 1074 0 1083 0 q 1083 97 1080 35 q 1086 201 1086 158 l 1086 444 q 975 447 1052 444 q 891 450 898 450 l 711 444 l 711 201 q 713 88 711 120 q 722 0 715 56 q 655 2 699 0 q 592 5 611 5 q 530 2 571 5 q 468 0 488 0 q 475 146 468 40 q 482 284 482 252 m 158 953 q 211 1001 191 986 q 259 1017 231 1017 q 312 994 291 1017 q 333 943 333 972 q 314 897 333 916 q 265 863 295 878 l 40 755 l -28 755 l 158 953 "},"¥":{"x_min":8,"x_max":752,"ha":764,"o":"m 38 252 l 38 336 l 160 332 l 277 332 l 277 417 q 140 413 225 417 q 38 410 55 410 l 38 494 q 131 486 87 486 l 228 486 l 143 644 q 87 751 114 704 q 8 888 60 799 q 82 884 34 888 q 138 881 130 881 q 213 884 167 881 q 265 888 258 888 q 433 529 349 696 q 524 707 478 613 q 608 888 571 802 q 640 888 624 888 q 674 888 657 888 l 752 888 q 602 642 653 729 q 516 486 551 554 l 722 494 l 722 410 q 583 413 668 410 q 485 417 497 417 l 485 331 l 722 336 l 722 252 q 604 255 690 252 q 485 258 518 258 q 490 123 485 213 q 495 0 495 33 l 386 5 q 316 2 364 5 q 264 0 268 0 q 274 126 271 59 q 277 258 277 194 q 140 255 235 258 q 38 252 45 252 "},"(":{"x_min":91,"x_max":403.5,"ha":449,"o":"m 249 479 l 249 379 l 249 277 q 287 54 249 161 q 402 -158 326 -53 l 356 -201 q 158 57 225 -80 q 91 365 91 195 q 158 683 91 541 q 359 949 225 825 l 403 906 q 288 701 328 808 q 249 479 249 594 "},"U":{"x_min":82,"x_max":910,"ha":999,"o":"m 211 926 q 275 929 232 926 q 338 932 318 932 q 325 681 329 826 q 321 421 321 536 q 373 175 321 241 q 521 110 425 110 q 678 161 611 110 q 755 278 746 212 q 768 419 765 344 q 771 547 771 494 q 754 931 771 761 l 812 926 l 910 932 q 903 769 910 882 q 896 615 896 655 l 896 480 q 896 427 896 462 q 896 375 896 391 q 793 82 896 180 q 494 -15 691 -15 q 211 55 323 -15 q 100 286 100 126 q 91 616 100 383 q 82 932 82 850 q 154 929 102 932 q 211 926 207 926 "},"γ":{"x_min":0,"x_max":713.890625,"ha":700,"o":"m 523 199 q 486 87 498 128 q 474 -62 474 47 q 477 -246 474 -135 q 481 -374 481 -357 q 407 -366 442 -368 q 326 -365 373 -365 l 250 -370 q 258 -204 250 -315 q 267 -72 267 -93 q 246 138 267 52 q 189 344 225 224 q 130 512 154 463 q 50 561 105 561 q 25 558 38 561 q 0 553 11 555 l 0 635 q 79 669 38 656 q 159 683 119 683 q 329 593 293 683 q 433 233 365 503 q 519 456 482 349 q 576 666 555 562 l 644 663 l 713 666 q 633 490 665 572 q 523 199 601 408 "},"α":{"x_min":30,"x_max":827.21875,"ha":878,"o":"m 669 665 l 749 662 l 827 665 q 763 499 782 551 q 720 377 743 447 l 818 0 q 763 6 792 2 q 717 10 733 10 q 662 5 692 10 q 615 0 632 1 l 594 101 q 361 -15 501 -15 q 120 83 210 -15 q 30 334 30 182 q 123 583 30 484 q 368 683 217 683 q 515 647 449 683 q 633 547 582 612 q 651 601 640 563 q 669 665 662 638 m 383 614 q 313 588 343 614 q 276 523 283 562 q 260 434 265 484 q 256 333 256 385 q 269 174 256 249 q 305 87 275 122 q 385 52 335 52 q 509 144 473 52 q 546 340 546 236 q 522 504 546 428 q 455 597 498 580 q 383 614 411 614 "},"F":{"x_min":91,"x_max":645.15625,"ha":686,"o":"m 109 465 q 105 710 109 620 q 91 932 102 800 l 357 926 q 520 929 406 926 q 645 932 635 932 l 638 871 q 645 810 638 844 q 524 815 607 810 q 415 820 442 820 l 339 820 q 337 663 339 778 q 335 546 335 548 l 634 557 l 629 494 l 634 431 q 462 437 573 431 q 335 443 350 443 l 335 236 q 337 106 335 149 q 348 0 339 62 l 219 2 l 91 0 q 105 209 102 102 q 109 465 109 316 "},"­":{"x_min":0,"x_max":683.328125,"ha":683,"o":"m 0 421 l 683 421 l 683 278 l 0 278 l 0 421 "},":":{"x_min":105,"x_max":343,"ha":447,"o":"m 223 221 q 307 185 272 221 q 343 103 343 150 q 306 19 343 54 q 223 -15 270 -15 q 139 18 174 -15 q 105 103 105 51 q 139 186 105 151 q 223 221 174 221 m 223 654 q 306 617 270 654 q 343 532 343 581 q 306 450 343 485 q 223 416 270 416 q 139 449 174 416 q 105 534 105 482 q 139 619 105 584 q 223 654 174 654 "},"Χ":{"x_min":-1.390625,"x_max":801.390625,"ha":782,"o":"m 169 241 l 301 436 l 15 932 q 94 929 38 932 q 155 926 150 926 q 235 929 179 926 q 298 932 291 932 q 314 893 308 907 q 358 802 320 880 l 445 638 q 547 805 513 748 q 613 932 581 862 q 655 929 627 932 q 698 926 683 926 q 740 929 712 926 q 783 932 768 932 q 685 800 709 833 q 616 701 661 766 l 502 531 l 801 0 q 713 2 776 0 q 647 5 651 5 l 516 0 l 470 108 l 356 326 q 265 174 316 263 q 170 0 215 84 q 118 3 154 0 q 77 6 81 6 q 31 4 52 6 q -1 0 11 1 l 169 241 "},"*":{"x_min":91,"x_max":588,"ha":683,"o":"m 154 520 q 128 571 139 550 q 91 634 117 593 q 186 665 139 650 q 284 698 234 680 q 190 734 242 716 q 91 765 139 751 q 154 879 125 816 l 310 750 l 298 808 l 275 949 l 339 947 l 405 948 l 368 745 l 525 879 q 588 765 553 822 q 398 698 499 737 q 490 664 441 680 q 588 634 539 648 q 557 581 574 612 q 525 520 540 551 l 370 650 q 389 528 381 580 q 404 443 397 476 l 337 446 l 273 446 l 310 650 l 154 520 "},"°":{"x_min":165,"x_max":519,"ha":683,"o":"m 165 913 q 221 1032 165 980 q 351 1084 278 1084 q 469 1040 420 1084 q 519 926 519 996 q 464 804 519 853 q 335 755 409 755 q 214 799 264 755 q 165 913 165 844 m 241 905 q 268 832 241 863 q 338 801 295 801 q 414 837 388 801 q 441 927 441 874 q 416 1009 441 977 q 345 1042 392 1042 q 281 1018 310 1042 q 247 962 253 994 q 241 905 241 930 "},"V":{"x_min":-19.4375,"x_max":856.953125,"ha":818,"o":"m 255 230 l -19 932 q 61 929 4 932 q 120 926 117 926 l 247 932 q 298 768 270 840 l 476 296 l 646 770 q 673 852 662 812 q 692 932 685 891 l 766 926 q 812 929 781 926 q 856 932 843 932 q 752 706 801 819 l 566 231 q 488 0 520 123 q 445 4 463 2 q 413 6 427 6 q 368 3 397 6 q 336 0 340 0 q 304 97 322 46 q 255 230 286 147 "},"Ξ":{"x_min":58.328125,"x_max":816.671875,"ha":876,"o":"m 438 190 q 653 193 518 190 q 816 197 788 197 q 812 124 812 160 l 812 99 q 812 51 812 74 q 816 0 812 27 q 629 4 754 0 q 438 8 504 8 q 248 4 375 8 q 58 0 122 0 l 63 98 l 58 197 q 281 193 145 197 q 438 190 418 190 m 438 747 q 258 743 379 747 q 77 739 137 739 q 84 804 83 784 q 84 834 84 823 q 77 932 84 879 q 267 927 140 932 q 438 922 394 922 q 626 927 500 922 q 797 932 752 932 l 793 835 l 797 739 q 619 743 738 739 q 438 747 500 747 m 708 467 l 713 375 q 577 379 669 375 q 438 383 486 383 q 300 379 391 383 q 162 375 208 375 q 165 418 163 397 q 168 468 168 440 q 165 523 168 484 q 162 567 162 562 q 438 554 300 554 q 713 566 577 554 l 708 467 "}," ":{"x_min":0,"x_max":0,"ha":375},"Ϋ":{"x_min":-32,"x_max":797,"ha":747,"o":"m 133 650 q 52 795 94 720 q -32 931 11 869 l 91 928 l 256 932 q 365 700 329 773 q 441 554 401 627 q 541 731 491 634 q 636 932 590 827 l 711 928 l 797 932 q 644 689 714 812 q 498 420 573 566 l 502 143 l 509 0 l 413 5 l 256 0 q 261 118 256 38 q 267 236 267 197 l 267 402 l 133 650 m 242 1242 q 309 1215 281 1242 q 337 1148 337 1189 q 311 1078 337 1107 q 243 1050 285 1050 q 173 1078 203 1050 q 144 1148 144 1107 q 173 1214 144 1186 q 242 1242 202 1242 m 502 1242 q 571 1214 542 1242 q 600 1148 600 1187 q 572 1078 600 1107 q 505 1050 545 1050 q 435 1077 463 1050 q 408 1148 408 1105 q 435 1214 408 1186 q 502 1242 463 1242 "},"0":{"x_min":34,"x_max":709,"ha":749,"o":"m 367 -19 q 104 104 175 -19 q 34 436 34 228 q 109 777 34 644 q 377 910 184 910 q 640 785 572 910 q 709 443 709 660 q 635 108 709 236 q 367 -19 561 -19 m 260 447 q 261 330 260 382 q 269 213 262 279 q 296 101 276 147 q 374 56 316 56 q 453 108 430 56 q 477 221 477 160 q 480 287 478 254 q 483 458 483 365 q 480 590 483 543 q 477 665 478 637 q 452 779 477 727 q 372 832 428 832 q 281 765 299 832 q 263 598 263 698 q 261 505 263 561 q 260 447 260 448 "},"@":{"x_min":59,"x_max":1305,"ha":1365,"o":"m 581 72 q 418 131 475 72 q 362 298 362 191 q 455 554 362 437 q 684 672 548 672 q 771 650 734 672 q 843 586 808 629 l 877 653 l 998 653 l 897 254 l 893 229 q 912 193 893 205 q 957 181 931 181 q 1119 290 1056 181 q 1183 504 1183 399 q 1060 772 1183 668 q 771 877 937 877 q 354 735 526 877 q 183 353 183 594 q 327 20 183 140 q 689 -100 471 -100 q 898 -66 792 -100 q 1092 25 1004 -33 l 1143 -51 q 689 -204 945 -204 q 244 -54 429 -204 q 59 348 59 94 q 261 804 59 621 q 739 988 464 988 q 1134 856 964 988 q 1305 505 1305 725 q 1195 206 1305 340 q 920 72 1085 72 l 895 72 q 818 90 846 72 q 777 180 791 108 q 691 99 739 127 q 581 72 643 72 m 693 578 q 552 487 600 578 q 505 294 505 397 q 532 207 505 245 q 606 169 560 169 q 712 212 668 169 q 772 322 756 256 l 808 466 q 773 546 804 515 q 693 578 742 578 "},"Ί":{"x_min":-28,"x_max":728,"ha":822,"o":"m 485 402 q 481 715 485 609 q 468 931 477 822 q 535 925 498 929 q 594 922 572 922 q 666 927 620 922 q 727 931 713 931 q 714 716 717 819 q 711 465 711 613 q 714 221 711 326 q 728 0 718 116 q 647 2 704 0 q 588 5 590 5 l 469 0 q 481 199 477 88 q 485 402 485 310 m 157 953 q 210 1001 190 986 q 258 1017 230 1017 q 311 994 290 1017 q 332 943 332 972 q 313 897 332 916 q 264 863 294 878 l 40 755 l -28 755 l 157 953 "},"ö":{"x_min":32,"x_max":743,"ha":775,"o":"m 395 683 q 647 588 551 683 q 743 337 743 494 q 648 79 743 173 q 387 -15 554 -15 q 129 78 227 -15 q 32 333 32 172 q 130 590 32 497 q 395 683 229 683 m 257 976 q 324 948 296 976 q 352 878 352 920 q 325 811 352 839 q 258 784 299 784 q 190 811 221 784 q 160 878 160 839 q 188 947 160 918 q 257 976 217 976 m 517 976 q 585 948 557 976 q 613 878 613 920 q 586 811 613 839 q 519 784 560 784 q 450 811 479 784 q 421 878 421 839 q 449 947 421 918 q 517 976 478 976 m 269 174 q 307 85 277 120 q 387 50 337 50 q 466 84 437 50 q 500 156 494 119 q 511 215 507 194 q 517 335 517 271 q 511 450 517 395 q 500 509 507 471 q 466 582 494 548 q 387 616 439 616 q 294 564 319 616 q 263 459 269 513 q 258 333 258 406 q 260 244 258 270 q 269 174 262 217 "},"i":{"x_min":80,"x_max":314.71875,"ha":396,"o":"m 196 1014 q 273 980 240 1014 q 307 902 307 947 q 274 825 307 858 q 196 793 241 793 q 118 824 151 793 q 85 902 85 856 q 118 980 85 947 q 196 1014 151 1014 m 91 127 l 91 543 l 80 666 q 140 660 109 663 q 196 658 171 658 q 253 660 223 658 q 314 666 284 663 l 301 545 l 301 319 q 302 145 301 206 q 312 0 304 84 l 194 4 l 81 0 q 88 64 85 33 q 91 127 91 95 "},"Β":{"x_min":91,"x_max":773,"ha":815,"o":"m 109 208 l 109 465 q 105 714 109 605 q 91 932 102 823 l 250 929 l 417 929 q 655 881 560 929 q 751 707 751 834 q 692 566 751 618 q 542 503 634 515 l 542 491 q 704 431 636 491 q 773 276 773 372 q 678 69 773 138 q 438 0 584 0 l 250 4 q 152 2 211 4 q 91 0 92 0 q 103 104 97 51 q 109 208 109 158 m 519 698 q 479 803 519 763 q 374 844 440 844 l 335 839 q 331 687 331 766 l 331 540 q 466 578 413 540 q 519 698 519 617 m 380 87 q 490 137 450 87 q 531 258 531 187 q 484 392 531 338 q 360 446 437 446 l 331 446 l 331 276 l 335 91 l 380 87 "},"υ":{"x_min":82,"x_max":765,"ha":843,"o":"m 765 416 q 663 115 765 245 q 401 -15 562 -15 q 162 56 243 -15 q 82 284 82 128 l 86 479 q 84 590 86 523 q 82 666 82 656 q 145 663 99 666 q 195 661 191 661 q 263 663 216 661 q 311 666 309 666 q 295 477 301 566 q 290 294 290 387 q 310 122 290 193 q 402 52 330 52 q 515 146 487 52 q 544 351 544 240 q 525 502 544 433 q 469 656 507 570 q 580 659 528 656 q 684 673 632 662 q 743 548 721 614 q 765 416 765 482 "},"]":{"x_min":76,"x_max":385.71875,"ha":454,"o":"m 80 -129 l 76 -85 l 227 -88 q 231 134 227 -14 q 235 356 235 282 q 231 605 235 438 q 227 855 227 771 l 164 855 l 76 855 l 80 885 q 80 908 80 896 q 76 931 77 925 l 230 926 l 385 933 l 373 566 l 373 359 l 373 199 l 383 -164 l 227 -157 q 141 -160 195 -157 q 76 -164 86 -164 l 80 -129 "},"m":{"x_min":80,"x_max":1135,"ha":1217,"o":"m 91 329 q 85 517 91 394 q 80 667 80 640 l 184 662 l 293 666 l 293 571 q 392 651 334 619 q 511 683 450 683 q 628 653 579 683 q 700 559 676 623 q 791 651 733 620 q 921 683 849 683 q 1068 624 1011 683 q 1125 477 1125 566 l 1125 331 q 1130 158 1125 274 q 1135 0 1135 41 q 1070 2 1116 0 q 1019 5 1024 5 q 954 2 999 5 q 905 0 909 0 q 910 155 905 51 q 915 298 915 259 l 915 385 q 896 506 915 458 q 818 554 877 554 q 755 528 779 554 q 719 460 730 502 q 712 381 714 426 q 710 319 710 335 q 715 153 710 265 q 720 0 720 41 q 656 3 694 0 q 608 6 617 6 q 544 3 585 6 q 496 0 504 0 q 501 155 496 51 q 506 298 506 259 l 506 385 q 487 505 506 456 q 409 554 469 554 q 346 528 370 554 q 310 460 321 502 q 303 381 305 426 q 301 319 301 335 q 306 153 301 265 q 311 0 311 41 q 243 3 284 0 q 195 6 202 6 q 128 3 170 6 q 80 0 86 0 q 85 163 80 53 q 91 329 91 273 "},"χ":{"x_min":15.28125,"x_max":730.5625,"ha":731,"o":"m 569 380 l 472 204 l 545 31 q 631 -159 586 -62 q 729 -368 676 -255 l 600 -363 q 475 -371 537 -363 q 404 -147 438 -259 l 350 1 l 268 -155 q 218 -260 242 -204 q 176 -371 194 -316 q 105 -363 143 -363 q 16 -371 62 -363 q 97 -240 52 -319 q 197 -66 141 -162 l 298 111 l 168 423 q 130 509 148 466 q 63 568 101 563 l 15 564 l 15 638 q 166 683 83 683 q 286 628 252 683 q 367 445 320 573 l 422 318 l 499 479 q 572 665 544 582 l 634 662 q 697 665 674 662 q 730 668 719 668 l 569 380 "},"8":{"x_min":34,"x_max":710,"ha":749,"o":"m 511 492 q 654 412 598 471 q 710 266 710 352 q 607 53 710 128 q 360 -21 504 -21 q 131 50 229 -21 q 34 248 34 122 q 88 406 34 341 q 235 492 143 471 l 235 502 q 117 568 164 516 q 71 689 71 620 q 165 855 71 802 q 382 908 259 908 q 584 857 498 908 q 671 696 671 806 q 628 574 671 621 q 511 502 586 526 l 511 492 m 373 528 q 456 573 432 528 q 481 684 481 618 q 458 792 481 748 q 376 836 435 836 q 290 791 316 836 q 264 683 264 747 q 291 575 264 622 q 373 528 318 528 m 369 55 q 464 117 439 55 q 489 259 489 180 q 465 396 489 335 q 379 457 441 457 q 285 393 314 457 q 256 256 256 329 q 278 114 256 174 q 369 55 301 55 "},"ί":{"x_min":80,"x_max":478.609375,"ha":396,"o":"m 91 126 l 91 543 l 80 666 q 139 660 105 663 q 196 658 173 658 q 264 660 238 658 q 314 666 291 663 q 304 586 307 616 q 301 523 301 557 l 301 113 q 302 72 301 88 q 314 0 304 56 l 195 4 l 81 0 q 87 67 84 30 q 91 126 91 104 m 303 953 q 357 1001 337 986 q 406 1017 377 1017 q 457 994 437 1017 q 478 943 478 972 q 459 897 478 915 q 410 863 441 878 l 187 755 l 118 755 l 303 953 "},"Ζ":{"x_min":25,"x_max":831.953125,"ha":831,"o":"m 25 54 q 186 311 81 142 q 354 582 291 480 q 495 813 418 685 l 294 813 q 98 801 186 813 l 105 852 q 98 932 105 894 l 444 926 q 657 928 509 926 q 815 931 805 931 l 815 903 q 573 517 695 715 q 331 119 451 320 l 566 119 q 706 122 654 119 q 831 136 758 125 q 826 43 826 96 l 827 0 q 606 3 761 0 q 443 6 451 6 q 203 3 370 6 q 25 0 36 0 l 25 54 "},"R":{"x_min":87,"x_max":860.609375,"ha":836,"o":"m 106 398 q 96 663 106 486 q 87 931 87 841 l 182 927 q 295 932 207 927 q 420 938 382 938 q 699 874 625 938 q 773 697 773 811 q 713 538 773 603 q 560 465 654 474 q 701 235 627 350 q 860 0 775 120 l 753 5 l 578 0 q 469 202 531 100 q 320 438 408 304 l 320 258 q 322 114 320 154 q 331 0 324 75 q 261 3 304 0 q 211 6 217 6 q 140 3 184 6 q 87 0 95 0 q 96 198 87 65 q 106 398 106 331 m 544 689 q 505 805 544 760 q 397 850 467 850 l 324 850 l 320 696 l 320 506 q 483 548 422 506 q 544 689 544 590 "},"×":{"x_min":183.828125,"x_max":970.171875,"ha":1139,"o":"m 577 501 l 877 800 l 970 706 l 670 408 l 970 106 l 876 13 l 577 314 l 277 13 l 184 106 l 483 408 l 183 706 l 277 800 l 577 501 "},"o":{"x_min":30,"x_max":741,"ha":774,"o":"m 395 683 q 645 587 550 683 q 741 337 741 492 q 646 79 741 173 q 385 -15 552 -15 q 127 78 225 -15 q 30 333 30 172 q 129 590 30 498 q 395 683 228 683 m 269 174 q 305 85 275 119 q 386 52 335 52 q 464 85 436 52 q 503 172 491 119 q 510 237 506 194 q 515 336 515 279 q 510 431 515 391 q 503 494 506 472 q 464 581 491 548 q 385 615 436 615 q 291 563 315 615 q 261 459 267 512 q 256 333 256 407 q 269 174 256 248 "},"5":{"x_min":46,"x_max":670,"ha":749,"o":"m 284 60 q 397 118 360 60 q 434 258 434 176 q 404 391 434 333 q 307 450 375 450 q 183 388 238 450 l 118 422 q 128 525 126 467 q 131 606 131 583 q 126 749 131 684 q 108 878 121 814 l 118 888 q 268 883 173 888 q 387 878 362 878 q 635 888 519 878 l 630 793 q 636 696 630 739 q 479 702 579 696 q 365 709 378 709 l 225 709 q 213 501 213 608 q 399 548 301 548 q 591 480 513 548 q 670 300 670 413 q 559 59 670 139 q 280 -21 449 -21 q 156 -7 222 -21 q 46 32 90 5 q 94 133 74 84 q 131 238 115 182 l 152 237 q 180 109 152 158 q 284 60 208 60 "},"7":{"x_min":96,"x_max":760,"ha":749,"o":"m 333 343 l 549 689 q 439 693 511 689 q 329 697 366 697 q 221 694 272 697 q 98 689 171 691 q 105 755 104 734 q 105 787 105 775 q 102 844 105 808 q 98 888 98 881 l 401 883 l 741 887 l 760 849 q 312 0 491 452 l 216 0 l 105 0 l 96 18 q 229 187 177 119 q 333 343 280 255 "},"K":{"x_min":90,"x_max":892.78125,"ha":856,"o":"m 334 716 l 334 515 l 569 787 q 635 866 619 845 q 682 932 651 886 l 767 926 q 817 929 784 926 q 870 932 851 932 q 687 746 790 851 q 503 554 585 641 l 623 377 q 892 0 753 179 l 753 5 q 664 2 727 5 q 595 0 600 0 q 484 190 545 98 q 334 404 424 281 l 334 193 q 348 0 334 94 q 270 2 325 0 q 212 5 215 5 l 90 0 q 99 236 90 69 q 108 461 108 402 q 103 623 108 515 q 99 787 99 731 l 90 932 q 157 927 113 932 q 219 922 201 922 q 282 925 252 922 q 342 932 312 927 q 338 831 342 907 q 334 716 334 755 "},",":{"x_min":25,"x_max":319.4375,"ha":375,"o":"m 109 121 q 146 203 119 168 q 218 238 173 238 q 289 208 259 238 q 319 136 319 178 q 313 101 319 118 q 294 64 306 85 l 62 -253 l 25 -238 l 109 121 "},"d":{"x_min":54,"x_max":744,"ha":825,"o":"m 318 -15 q 115 84 177 -15 q 54 336 54 184 q 124 583 54 483 q 336 683 194 683 q 525 584 451 683 l 525 738 l 518 1024 q 581 1016 554 1019 q 630 1013 609 1013 q 678 1015 653 1013 q 744 1023 703 1018 q 740 900 744 983 q 736 775 736 816 q 738 403 736 627 q 740 176 740 179 l 744 0 q 680 3 721 0 q 630 6 638 6 q 568 3 608 6 q 520 0 528 0 q 523 39 522 16 q 525 85 525 62 q 430 8 477 32 q 318 -15 383 -15 m 396 587 q 328 562 355 587 q 289 499 300 538 q 273 409 277 460 q 269 316 269 358 q 295 158 269 227 q 396 89 321 89 q 501 167 473 89 q 530 338 530 245 q 503 511 530 435 q 396 587 477 587 "},"¨":{"x_min":65.28125,"x_max":609.71875,"ha":654,"o":"m 251 613 q 218 541 243 570 q 154 512 194 512 q 90 537 116 512 q 65 601 65 563 q 87 665 65 634 l 291 949 l 331 933 l 251 613 m 530 613 q 498 542 525 573 q 433 512 472 512 q 371 536 397 512 q 345 598 345 560 q 366 665 345 633 l 570 949 l 609 933 l 530 613 "},"E":{"x_min":90,"x_max":644.15625,"ha":703,"o":"m 108 222 l 108 465 q 104 710 108 620 q 91 932 101 800 l 357 926 q 520 929 405 926 q 644 932 634 932 q 640 903 641 916 q 638 872 638 890 q 639 848 638 857 q 644 810 640 840 q 530 815 606 810 q 414 820 453 820 l 338 820 l 334 545 l 634 557 q 630 527 631 541 q 628 494 628 514 l 633 431 q 459 437 571 431 q 334 444 347 444 l 334 296 q 336 190 334 264 q 338 113 338 115 q 638 129 489 113 l 634 63 l 638 0 q 433 3 562 0 q 278 7 305 7 q 169 3 235 7 q 90 0 102 0 q 102 114 96 54 q 108 222 108 175 "},"Y":{"x_min":-30,"x_max":797,"ha":747,"o":"m 136 650 q 67 772 123 672 q -30 932 10 872 l 92 926 q 184 929 120 926 q 256 931 249 931 q 345 740 304 825 q 442 554 386 656 q 541 730 492 636 q 637 931 589 825 l 712 926 q 753 929 726 926 q 797 931 781 931 q 644 689 714 812 q 498 420 573 566 l 502 143 l 508 0 l 414 5 l 256 0 q 262 138 256 50 q 269 237 269 226 l 269 402 l 136 650 "},"\"":{"x_min":53,"x_max":399,"ha":451,"o":"m 181 958 l 181 586 l 53 586 l 53 958 l 181 958 m 399 958 l 399 586 l 271 586 l 271 958 l 399 958 "},"ê":{"x_min":41,"x_max":684.046875,"ha":729,"o":"m 482 98 q 566 112 532 98 q 643 160 600 126 l 661 151 q 643 96 652 125 q 628 40 634 66 q 521 -1 577 11 q 403 -15 466 -15 q 141 79 241 -15 q 41 336 41 173 q 137 586 41 490 q 386 683 234 683 q 608 601 532 683 q 684 373 684 520 l 684 332 l 267 332 q 325 165 267 232 q 482 98 383 98 m 302 1001 l 426 1001 l 577 754 l 512 754 l 364 876 l 216 754 l 149 754 l 302 1001 m 478 411 q 481 444 481 422 q 459 566 481 513 q 377 620 438 620 q 292 562 318 620 q 267 437 267 505 l 267 411 l 478 411 "},"δ":{"x_min":30,"x_max":688,"ha":719,"o":"m 543 794 q 498 889 531 854 q 407 924 465 924 q 329 895 362 924 q 296 822 296 867 q 393 671 296 739 q 585 539 490 603 q 688 308 688 444 q 600 71 688 157 q 359 -15 513 -15 q 119 70 209 -15 q 30 305 30 155 q 88 503 30 419 q 256 614 147 586 q 130 696 178 650 q 82 812 82 743 q 173 968 82 916 q 374 1021 263 1021 q 629 946 510 1021 q 606 875 617 912 q 582 788 596 839 l 543 794 m 269 163 q 296 83 276 114 q 360 52 317 52 q 435 95 414 52 q 462 204 456 139 l 462 306 l 462 407 q 438 513 462 464 q 363 561 415 561 q 298 529 321 561 q 269 449 274 496 q 260 382 263 421 q 258 306 258 343 q 260 227 258 249 q 269 163 262 206 "},"έ":{"x_min":55,"x_max":667.5,"ha":657,"o":"m 512 501 q 472 579 502 548 q 396 611 442 611 q 323 577 352 611 q 295 498 295 544 q 316 429 295 458 q 375 394 337 399 l 450 394 l 450 373 q 450 336 450 349 q 450 316 450 323 q 414 319 438 319 q 322 280 361 319 q 283 194 283 242 q 323 101 283 144 q 413 59 363 59 q 498 88 461 59 q 572 167 536 117 l 600 155 q 594 130 596 144 q 593 104 593 115 q 593 82 593 90 q 600 53 593 74 q 351 -15 486 -15 q 145 30 236 -15 q 55 176 55 75 q 105 289 55 244 q 233 360 156 335 q 127 421 167 385 q 88 516 88 456 q 165 643 88 603 q 340 683 243 683 q 593 612 480 683 q 565 556 576 583 q 551 501 555 530 l 512 501 m 492 955 q 545 1003 525 988 q 595 1019 566 1019 q 646 996 625 1019 q 667 945 667 974 q 648 899 667 917 q 600 865 630 880 l 375 757 l 306 757 l 492 955 "},"ω":{"x_min":30,"x_max":1059,"ha":1093,"o":"m 335 -15 q 111 79 192 -15 q 30 321 30 173 q 72 505 30 421 q 192 667 114 589 q 297 661 237 661 q 347 663 319 661 q 390 667 374 665 q 247 281 247 499 q 269 123 247 195 q 358 52 291 52 q 421 86 399 52 q 443 165 443 121 l 443 291 q 441 415 443 379 q 435 512 440 451 q 510 505 499 505 q 544 505 522 505 q 608 508 579 505 q 657 512 636 511 q 648 402 652 465 q 644 289 644 340 q 644 237 644 258 q 650 165 644 215 q 669 85 650 119 q 730 52 688 52 q 821 122 798 52 q 844 279 844 192 q 807 481 844 386 q 700 666 771 576 q 746 662 724 663 q 793 661 767 661 q 846 664 812 661 q 898 667 881 667 q 1016 508 974 595 q 1059 322 1059 422 q 974 83 1059 182 q 753 -15 890 -15 q 630 13 685 -15 q 545 100 575 41 q 459 14 516 44 q 335 -15 402 -15 "},"´":{"x_min":70.828125,"x_max":337.5,"ha":374,"o":"m 70 528 l 151 848 q 183 919 158 889 q 244 949 208 949 q 310 924 283 949 q 337 862 337 900 q 331 829 337 845 q 316 797 326 813 l 111 511 l 70 528 "},"±":{"x_min":169,"x_max":969,"ha":1139,"o":"m 636 815 l 636 597 l 969 597 l 969 465 l 636 465 l 636 246 l 501 246 l 501 465 l 169 465 l 169 597 l 501 597 l 501 815 l 636 815 m 969 132 l 969 0 l 169 0 l 169 132 l 969 132 "},"|":{"x_min":272,"x_max":411,"ha":683,"o":"m 411 956 l 411 447 l 272 447 l 272 956 l 411 956 m 411 272 l 411 -233 l 272 -233 l 272 272 l 411 272 "},"ϋ":{"x_min":82,"x_max":765,"ha":843,"o":"m 765 415 q 663 114 765 244 q 401 -15 562 -15 q 162 56 243 -15 q 82 284 82 127 l 86 478 q 84 589 86 523 q 82 666 82 656 q 145 663 99 666 q 195 661 191 661 q 263 663 216 661 q 311 666 309 666 q 295 476 301 566 q 290 294 290 387 q 310 122 290 193 q 402 52 330 52 q 515 146 487 52 q 544 351 544 240 q 525 502 544 433 q 469 657 507 570 q 580 659 528 657 q 684 672 632 662 q 743 547 721 613 q 765 415 765 482 m 262 975 q 329 947 301 975 q 357 879 357 919 q 331 811 357 840 q 265 783 305 783 q 195 810 226 783 q 165 879 165 838 q 192 947 165 919 q 262 975 220 975 m 522 975 q 589 947 561 975 q 617 879 617 919 q 591 811 617 840 q 525 783 565 783 q 456 811 486 783 q 427 879 427 840 q 454 947 427 919 q 522 975 482 975 "},"§":{"x_min":61,"x_max":685,"ha":743,"o":"m 118 39 l 136 38 q 207 -72 149 -32 q 341 -113 265 -113 q 441 -84 398 -113 q 485 -1 485 -56 q 378 121 485 73 q 170 213 272 169 q 61 386 61 277 q 95 495 61 437 q 175 584 129 554 q 133 649 148 615 q 118 721 118 683 q 206 887 118 825 q 406 949 295 949 q 531 937 479 949 q 630 895 583 926 q 598 826 613 860 q 570 754 583 791 l 558 754 q 499 848 548 812 q 388 884 451 884 q 300 858 340 884 q 261 785 261 832 q 366 672 261 717 q 575 583 472 626 q 685 414 685 519 q 657 302 685 354 q 580 216 630 250 q 622 149 602 197 q 643 68 643 101 q 545 -116 643 -51 q 322 -182 447 -182 q 197 -171 255 -182 q 86 -135 138 -161 q 118 39 106 -38 m 197 478 q 310 346 197 400 q 521 249 423 293 q 546 312 546 274 q 433 432 546 379 q 224 528 320 485 q 197 478 201 508 "},"b":{"x_min":79,"x_max":772,"ha":825,"o":"m 89 647 q 84 844 89 712 q 79 1024 79 977 q 136 1018 105 1021 q 192 1015 167 1015 q 249 1018 217 1015 q 306 1023 280 1020 l 299 724 l 299 578 q 389 656 339 630 q 505 683 439 683 q 704 581 637 683 q 772 340 772 479 q 694 88 772 191 q 470 -15 617 -15 q 340 15 400 -15 q 237 104 280 45 q 202 74 215 87 q 136 1 190 62 l 79 1 q 84 357 79 132 q 89 647 89 583 m 430 586 q 318 512 346 586 q 291 338 291 438 q 316 162 291 238 q 424 86 342 86 q 528 159 503 86 q 554 331 554 233 q 531 510 554 434 q 430 586 508 586 "},"q":{"x_min":51,"x_max":741,"ha":825,"o":"m 331 -15 q 121 81 191 -15 q 51 323 51 177 q 117 576 51 469 q 323 683 184 683 q 523 580 446 683 l 523 605 q 516 666 523 631 q 586 660 568 661 q 627 659 604 659 q 741 666 675 659 q 738 416 741 561 q 732 125 735 271 q 730 -124 730 -19 q 735 -246 730 -164 q 741 -371 741 -328 q 687 -363 718 -366 q 628 -361 656 -361 q 563 -363 581 -361 q 514 -372 545 -365 l 523 -58 l 523 85 q 437 10 482 35 q 331 -15 392 -15 m 386 81 q 484 135 452 81 q 523 261 516 189 l 523 300 q 523 351 523 330 q 523 392 523 372 q 490 518 523 460 q 393 576 458 576 q 290 502 314 576 q 266 327 266 429 q 288 155 266 229 q 386 81 310 81 "},"Ω":{"x_min":36,"x_max":1174.890625,"ha":1211,"o":"m 1173 129 q 1170 103 1170 116 q 1170 83 1170 90 l 1170 70 q 1170 36 1170 52 q 1174 0 1170 19 l 953 4 l 715 0 l 715 103 q 848 251 813 162 q 883 473 883 340 q 815 741 883 623 q 607 860 747 860 q 396 738 461 860 q 331 457 331 616 q 369 245 331 339 q 496 102 407 152 l 496 0 l 256 4 l 36 0 l 38 80 l 36 129 q 264 113 151 113 q 128 258 172 167 q 85 464 85 350 q 235 821 85 693 q 622 949 386 949 q 988 830 846 949 q 1130 491 1130 712 q 1082 272 1130 363 q 928 112 1034 180 q 1173 129 1049 112 "},"ύ":{"x_min":82,"x_max":765,"ha":843,"o":"m 765 415 q 663 114 765 244 q 400 -15 561 -15 q 162 56 242 -15 q 82 284 82 128 l 86 479 q 84 590 86 523 q 82 666 82 656 q 145 663 99 666 q 195 661 191 661 q 263 663 216 661 q 311 666 309 666 q 295 477 301 566 q 290 294 290 387 q 310 122 290 193 q 402 52 330 52 q 515 146 487 52 q 544 351 544 240 q 525 502 544 433 q 469 656 507 570 q 580 659 528 656 q 684 672 632 662 q 743 547 721 613 q 765 415 765 482 m 548 953 q 601 1001 581 986 q 651 1017 621 1017 q 702 994 681 1017 q 723 943 723 972 q 704 897 723 916 q 655 863 685 878 l 431 755 l 362 755 l 548 953 "},"Ö":{"x_min":40,"x_max":1087,"ha":1129,"o":"m 577 949 q 946 829 805 949 q 1087 486 1087 710 q 942 115 1087 246 q 552 -15 798 -15 q 176 107 313 -15 q 40 465 40 229 q 188 823 40 697 q 577 949 337 949 m 434 1242 q 501 1215 473 1242 q 529 1148 529 1189 q 502 1079 529 1108 q 435 1050 476 1050 q 366 1079 396 1050 q 337 1148 337 1109 q 366 1214 337 1186 q 434 1242 395 1242 m 693 1242 q 761 1215 733 1242 q 789 1148 789 1189 q 762 1079 789 1108 q 695 1050 736 1050 q 627 1079 655 1050 q 600 1148 600 1108 q 627 1214 600 1186 q 693 1242 655 1242 m 562 71 q 774 194 706 71 q 843 470 843 318 q 774 742 843 623 q 563 861 706 861 q 353 741 420 861 q 287 465 287 622 q 354 191 287 312 q 562 71 421 71 "},"z":{"x_min":19.4375,"x_max":640.28125,"ha":664,"o":"m 19 75 q 118 216 33 94 q 257 415 204 337 q 359 567 311 493 l 255 568 q 151 562 205 568 q 65 552 97 556 l 68 608 l 65 667 l 337 660 q 507 663 404 660 q 627 666 611 666 l 627 588 q 515 441 573 519 q 399 276 458 362 q 280 98 340 190 l 375 96 q 506 101 418 96 q 640 107 595 107 q 638 76 638 93 q 637 51 637 59 l 637 34 l 640 0 q 459 3 568 0 q 333 7 351 7 q 147 3 259 7 q 19 0 36 0 l 19 75 "},"™":{"x_min":136,"x_max":964,"ha":1138,"o":"m 461 975 l 461 900 l 350 900 l 350 610 l 249 610 l 249 900 l 136 900 l 136 975 l 461 975 m 666 974 l 751 751 l 833 974 l 964 975 l 964 610 l 874 610 l 874 882 l 772 610 l 730 610 l 625 881 l 625 610 l 535 610 l 535 975 l 666 974 "},"ή":{"x_min":80,"x_max":727,"ha":808,"o":"m 91 339 q 85 512 91 391 q 80 667 80 632 q 137 661 125 662 q 180 661 149 661 q 244 663 199 661 q 293 666 290 666 l 293 568 q 391 651 338 622 q 511 681 443 681 q 660 622 602 681 q 719 471 719 564 l 719 327 l 719 -50 q 723 -219 719 -107 q 727 -374 727 -332 q 618 -365 670 -365 q 502 -373 562 -365 l 512 16 l 512 251 l 512 368 q 491 499 512 446 q 408 552 471 552 q 319 488 342 552 q 302 419 305 457 q 299 330 299 382 q 304 148 299 264 q 309 0 309 33 q 243 3 278 0 q 195 6 207 6 q 127 3 163 6 q 80 0 92 0 q 85 188 80 65 q 91 339 91 311 m 552 953 q 605 1001 585 986 q 654 1017 625 1017 q 706 994 685 1017 q 727 943 727 972 q 708 897 727 916 q 658 863 689 878 l 435 756 l 366 756 l 552 953 "},"Θ":{"x_min":40,"x_max":1087,"ha":1129,"o":"m 51 585 q 235 855 85 761 q 577 949 385 949 q 944 829 802 949 q 1087 487 1087 710 q 941 116 1087 247 q 552 -15 796 -15 q 176 107 313 -15 q 40 465 40 229 q 41 510 40 492 q 51 585 42 528 m 559 73 q 771 194 703 73 q 840 472 840 315 q 773 742 840 624 q 566 860 706 860 q 353 742 420 860 q 287 465 287 624 q 353 193 287 314 q 559 73 419 73 m 566 525 q 678 528 610 525 q 755 532 745 532 l 754 539 l 754 472 l 754 403 l 755 407 l 563 414 l 373 407 l 373 469 l 373 531 q 484 528 416 531 q 566 525 553 525 "},"®":{"x_min":72,"x_max":1065,"ha":1138,"o":"m 1065 488 q 917 139 1065 285 q 567 -6 770 -6 q 219 139 366 -6 q 72 488 72 285 q 219 836 72 688 q 567 985 367 985 q 917 839 770 985 q 1065 488 1065 693 m 155 488 q 276 197 155 320 q 566 75 398 75 q 858 197 734 75 q 983 487 983 320 q 860 780 983 656 q 567 904 738 904 q 277 780 399 904 q 155 488 155 656 m 577 774 q 741 740 670 774 q 812 625 812 707 q 778 527 812 569 q 692 468 745 484 l 811 223 l 666 222 l 561 447 l 497 447 l 497 223 l 361 223 l 361 774 l 577 774 m 497 528 l 562 528 q 641 546 609 528 q 673 608 673 564 q 655 660 673 638 q 607 685 638 682 q 555 691 584 691 l 497 691 l 497 528 "},"É":{"x_min":90,"x_max":644.15625,"ha":703,"o":"m 108 223 l 108 465 q 104 713 108 622 q 91 933 101 804 l 357 929 l 644 933 l 640 872 l 644 811 q 530 816 606 811 q 415 822 453 822 l 340 822 q 337 663 340 774 q 334 545 334 551 l 634 557 q 631 521 634 546 q 628 493 628 496 q 630 458 628 477 q 634 429 633 440 q 476 436 587 429 q 334 444 365 444 l 334 294 q 335 203 334 249 q 340 111 336 156 q 483 114 419 111 q 640 128 546 118 q 634 65 634 100 q 635 37 634 47 q 640 0 635 27 q 427 3 556 0 q 280 7 298 7 q 169 3 242 7 q 90 0 95 0 q 102 117 97 59 q 108 223 108 175 m 410 1222 q 465 1272 445 1257 q 515 1288 485 1288 q 566 1265 545 1288 q 587 1215 587 1243 q 568 1169 587 1189 q 519 1133 549 1148 l 294 1025 l 225 1025 l 410 1222 "},"~":{"x_min":266,"x_max":1091,"ha":1367,"o":"m 1091 938 q 1033 721 1091 807 q 847 636 975 636 q 661 720 757 636 q 518 805 564 805 q 427 756 453 805 q 402 636 402 708 l 266 636 q 327 849 266 761 q 510 938 388 938 q 696 853 599 938 q 846 768 793 768 q 933 815 911 768 q 956 938 956 863 l 1091 938 "},"Ε":{"x_min":90,"x_max":644.15625,"ha":703,"o":"m 108 222 l 108 465 q 104 710 108 620 q 91 932 101 800 l 357 926 q 520 929 405 926 q 644 932 634 932 q 640 903 641 916 q 638 872 638 890 q 639 848 638 857 q 644 810 640 840 q 530 815 606 810 q 414 820 453 820 l 338 820 l 334 545 l 634 557 q 630 527 631 541 q 628 494 628 514 l 633 431 q 459 437 571 431 q 334 444 347 444 l 334 296 q 336 190 334 264 q 338 113 338 115 q 638 129 489 113 l 634 63 l 638 0 q 433 3 562 0 q 278 7 305 7 q 169 3 235 7 q 90 0 102 0 q 102 114 96 54 q 108 222 108 175 "},"³":{"x_min":18,"x_max":448,"ha":494,"o":"m 242 899 q 370 867 315 899 q 425 770 425 836 q 399 699 425 730 q 301 645 373 667 q 403 605 359 642 q 448 512 448 569 q 375 384 448 426 q 210 342 303 342 q 108 352 152 342 q 18 391 65 362 q 88 505 60 451 l 98 505 q 119 420 98 452 q 191 388 141 388 q 263 421 237 388 q 290 501 290 454 q 262 580 290 549 q 186 612 235 612 l 151 612 l 151 660 l 181 658 q 259 684 228 658 q 290 759 290 710 q 268 828 290 800 q 207 856 246 856 q 141 821 163 856 q 119 742 119 787 l 110 736 q 26 815 75 777 q 120 876 53 854 q 242 899 187 899 "},"[":{"x_min":104,"x_max":415.109375,"ha":454,"o":"m 409 883 l 415 852 l 261 855 l 257 541 q 261 212 257 433 q 266 -86 266 -8 l 327 -88 l 415 -88 l 409 -117 q 415 -162 409 -142 l 261 -157 l 104 -164 q 110 154 104 -50 q 117 383 117 359 q 110 703 117 496 q 104 933 104 909 q 194 929 138 933 q 258 926 249 926 q 347 929 284 926 q 415 933 410 933 q 409 883 409 911 "},"L":{"x_min":91,"x_max":639.609375,"ha":650,"o":"m 109 465 q 105 710 109 620 q 91 932 102 800 l 216 927 l 350 931 q 337 618 337 783 l 337 296 q 337 201 337 249 q 341 113 337 153 q 639 129 491 113 l 635 63 l 639 0 q 434 3 563 0 q 279 7 306 7 q 170 3 236 7 q 91 0 103 0 q 105 209 102 102 q 109 465 109 316 "},"σ":{"x_min":30,"x_max":832,"ha":826,"o":"m 679 557 q 730 451 724 495 q 738 384 736 407 q 741 339 741 361 q 738 277 741 295 q 726 190 736 259 q 617 53 716 121 q 385 -15 518 -15 q 126 78 223 -15 q 30 336 30 172 q 127 588 30 494 q 384 683 224 683 q 536 671 432 683 q 677 660 639 660 q 765 663 705 660 q 831 666 825 666 q 827 611 827 637 l 827 594 l 832 552 l 702 557 l 679 557 m 256 333 q 269 174 256 248 q 304 88 275 124 q 381 52 332 52 q 475 104 443 52 q 508 221 508 156 q 512 258 509 235 q 515 323 515 282 q 512 411 515 370 q 508 444 509 427 q 479 563 508 511 q 389 615 450 615 q 299 565 327 615 q 263 450 271 516 q 256 333 256 384 "},"ζ":{"x_min":64,"x_max":667,"ha":656,"o":"m 231 360 l 231 340 l 231 314 q 343 192 231 217 q 554 162 448 176 q 667 24 667 133 q 628 -103 667 -42 q 525 -221 589 -164 l 458 -181 q 505 -114 493 -134 q 521 -63 516 -95 q 375 13 521 -6 q 146 71 229 33 q 64 260 64 110 q 123 495 64 382 q 257 692 182 608 q 467 905 333 776 q 278 903 353 905 q 122 893 204 901 l 126 958 l 122 1024 q 255 1019 166 1024 q 389 1015 344 1015 q 511 1019 429 1015 q 635 1024 593 1024 l 630 978 l 634 934 q 433 764 520 848 q 288 578 346 680 q 231 360 231 476 "},"θ":{"x_min":34,"x_max":710,"ha":749,"o":"m 710 450 q 636 110 710 240 q 367 -19 562 -19 q 104 103 175 -19 q 34 434 34 226 q 106 774 34 641 q 368 908 178 908 q 637 785 565 908 q 710 450 710 662 m 370 416 q 305 413 351 416 q 255 410 259 410 q 257 322 255 371 q 266 208 259 273 q 292 96 272 143 q 370 49 312 49 q 429 72 406 49 q 463 135 452 96 q 479 263 474 192 q 484 410 484 335 q 418 413 464 410 q 370 416 372 416 m 484 601 q 464 769 484 698 q 372 840 445 840 q 277 759 300 840 q 255 560 255 679 l 255 492 l 372 488 l 488 492 l 484 601 "},"Ο":{"x_min":40,"x_max":1086,"ha":1129,"o":"m 577 949 q 945 829 804 949 q 1086 486 1086 710 q 942 114 1086 244 q 552 -15 798 -15 q 176 107 313 -15 q 40 465 40 229 q 188 823 40 697 q 577 949 337 949 m 562 73 q 773 194 706 73 q 840 472 840 315 q 773 742 840 624 q 566 860 706 860 q 353 742 420 860 q 287 465 287 624 q 353 193 287 313 q 562 73 420 73 "},"Γ":{"x_min":91,"x_max":639.609375,"ha":650,"o":"m 232 926 l 449 926 l 639 932 l 635 866 l 639 802 q 485 815 548 812 q 341 819 423 819 q 338 769 339 805 q 337 681 337 734 l 337 635 l 337 312 q 339 138 337 195 q 351 0 341 81 l 216 4 l 91 0 q 100 238 91 70 q 109 465 109 406 q 105 713 109 613 q 91 932 102 813 q 161 929 114 932 q 232 926 209 926 "}," ":{"x_min":0,"x_max":0,"ha":375},"%":{"x_min":28,"x_max":1085,"ha":1122,"o":"m 265 910 q 434 844 369 910 q 500 672 500 779 q 435 496 500 562 q 258 431 370 431 q 91 498 154 431 q 28 669 28 565 q 93 843 28 776 q 265 910 158 910 m 831 1015 l 917 1014 l 272 -125 l 184 -125 l 831 1015 m 849 463 q 1020 401 955 463 q 1085 230 1085 339 q 1023 51 1085 117 q 845 -15 961 -15 q 677 51 742 -15 q 612 222 612 118 q 675 398 612 333 q 849 463 738 463 m 196 561 q 214 505 196 532 q 261 478 232 478 q 297 489 280 478 q 323 525 314 501 q 335 586 332 548 q 339 669 339 625 q 337 723 339 697 q 332 780 336 749 q 311 836 327 811 q 264 861 296 861 q 204 820 222 861 q 191 752 194 786 q 188 669 188 719 q 196 561 188 615 m 779 112 q 797 57 779 83 q 847 31 816 31 q 895 59 873 31 q 916 114 916 87 q 922 222 922 162 q 922 275 922 248 q 915 338 917 312 q 896 389 912 364 q 848 414 880 414 q 812 404 827 414 q 791 375 797 394 q 776 312 780 347 q 772 241 772 276 l 772 222 q 772 183 772 201 q 779 112 773 165 "},"P":{"x_min":91,"x_max":765,"ha":801,"o":"m 334 201 q 335 129 334 148 q 348 0 336 110 q 272 3 317 0 q 219 6 226 6 q 143 3 189 6 q 91 0 97 0 q 104 212 100 112 q 108 462 108 313 q 99 725 108 549 q 91 933 91 900 q 161 929 111 933 q 215 925 211 925 l 395 933 l 445 933 q 677 876 590 933 q 765 681 765 819 q 691 486 765 565 q 544 400 618 408 q 423 390 470 391 q 334 389 375 389 l 334 201 m 536 669 q 498 788 536 741 q 390 836 461 836 l 334 836 l 334 694 l 334 486 q 485 529 435 486 q 536 669 536 572 "},"Ώ":{"x_min":-28,"x_max":1452.5625,"ha":1489,"o":"m 1451 129 q 1448 104 1448 117 q 1448 83 1448 90 l 1448 70 q 1448 36 1448 52 q 1452 0 1448 19 l 1231 4 l 993 0 l 993 103 q 1126 251 1091 162 q 1161 473 1161 340 q 1092 741 1161 623 q 884 860 1024 860 q 673 738 738 860 q 608 457 608 616 q 646 245 608 339 q 774 102 684 152 l 774 0 l 534 4 l 314 0 l 316 80 l 313 129 q 542 113 429 113 q 405 258 449 167 q 362 464 362 350 q 512 821 362 693 q 899 949 663 949 q 1266 830 1124 949 q 1408 491 1408 712 q 1360 272 1408 363 q 1206 112 1312 180 q 1451 129 1327 112 m 158 953 q 211 1001 191 986 q 259 1017 231 1017 q 312 994 291 1017 q 333 943 333 972 q 314 897 333 916 q 265 863 295 878 l 40 755 l -28 755 l 158 953 "},"Έ":{"x_min":-28,"x_max":1020.609375,"ha":1078,"o":"m 485 222 l 485 465 q 481 710 485 620 q 467 931 478 800 l 733 926 q 896 929 781 926 q 1020 932 1010 932 q 1016 903 1017 916 q 1015 872 1015 890 q 1015 848 1015 857 q 1020 810 1016 839 q 906 815 983 810 q 791 820 830 820 l 715 820 l 711 544 l 1010 556 q 1006 527 1008 540 q 1005 493 1005 513 l 1009 430 q 836 436 948 430 q 711 443 724 443 l 711 296 q 713 189 711 264 q 715 113 715 115 q 1015 129 865 113 l 1010 63 l 1015 0 q 810 3 938 0 q 655 7 681 7 q 545 3 612 7 q 466 0 478 0 q 478 114 472 54 q 485 222 485 175 m 158 953 q 212 1001 191 986 q 260 1017 232 1017 q 313 994 292 1017 q 334 943 334 972 q 315 897 334 916 q 265 863 296 878 l 40 755 l -28 755 l 158 953 "},"_":{"x_min":0,"x_max":683.328125,"ha":683,"o":"m 683 -184 l 683 -322 l 0 -322 l 0 -184 l 683 -184 "},"Ϊ":{"x_min":-1,"x_max":450,"ha":449,"o":"m 110 402 q 103 709 110 511 q 97 932 97 908 q 161 926 130 929 q 220 923 192 923 q 287 927 242 923 q 351 931 331 931 q 343 688 351 859 q 336 465 336 516 q 343 221 336 391 q 351 0 351 51 q 283 2 330 0 q 212 5 236 5 l 97 0 q 103 233 97 83 q 110 402 110 383 m 93 1242 q 160 1215 132 1242 q 188 1148 188 1189 q 162 1078 188 1107 q 97 1050 136 1050 q 28 1079 57 1050 q -1 1148 -1 1108 q 26 1214 -1 1186 q 93 1242 54 1242 m 352 1242 q 421 1214 393 1242 q 450 1148 450 1187 q 423 1079 450 1108 q 356 1050 397 1050 q 286 1078 316 1050 q 257 1148 257 1107 q 286 1214 257 1186 q 352 1242 315 1242 "},"+":{"x_min":169,"x_max":968,"ha":1138,"o":"m 636 813 l 636 473 l 968 473 l 968 340 l 636 340 l 636 0 l 501 0 l 501 340 l 169 340 l 169 473 l 501 473 l 501 813 l 636 813 "},"½":{"x_min":68,"x_max":1145.765625,"ha":1171,"o":"m 207 481 l 207 736 l 207 808 q 150 784 180 798 q 103 763 120 770 l 68 813 q 195 860 131 834 q 331 918 259 886 l 348 909 q 346 744 348 844 q 344 644 344 645 l 345 650 l 345 505 l 345 511 q 345 458 345 480 q 349 391 345 437 l 299 394 q 247 392 281 394 q 198 391 213 391 l 207 481 m 844 1014 l 928 1014 l 326 -124 l 243 -124 l 844 1014 m 721 42 q 908 194 839 122 q 977 365 977 266 q 962 434 977 408 q 905 460 947 460 q 840 427 864 460 q 805 345 816 395 l 795 345 q 768 379 789 358 q 727 418 747 400 q 822 487 773 465 q 936 510 870 510 q 1068 474 1012 510 q 1124 365 1124 439 q 1035 209 1124 271 q 890 110 947 147 l 970 109 q 1070 111 999 109 q 1145 114 1140 114 q 1134 48 1134 80 q 1138 23 1134 37 q 1144 0 1143 9 l 1006 3 l 729 3 l 721 42 "},"Ρ":{"x_min":91,"x_max":765,"ha":801,"o":"m 334 201 q 335 129 334 148 q 348 0 336 110 q 272 3 317 0 q 219 6 226 6 q 143 3 189 6 q 91 0 97 0 q 104 212 100 112 q 108 462 108 313 q 99 725 108 549 q 91 933 91 900 q 161 929 111 933 q 215 925 211 925 l 395 933 l 445 933 q 677 876 590 933 q 765 681 765 819 q 691 486 765 565 q 544 400 618 408 q 423 390 470 391 q 334 389 375 389 l 334 201 m 536 669 q 498 788 536 741 q 390 836 461 836 l 334 836 l 334 694 l 334 486 q 485 529 435 486 q 536 669 536 572 "},"'":{"x_min":72.21875,"x_max":337.5,"ha":375,"o":"m 72 528 l 152 848 q 184 919 159 889 q 245 949 209 949 q 311 923 284 949 q 337 861 337 898 q 315 797 337 827 l 112 511 l 72 528 "},"T":{"x_min":8,"x_max":738,"ha":749,"o":"m 493 818 q 490 723 493 790 q 487 652 487 656 q 490 427 487 529 q 498 201 494 326 q 503 0 503 77 q 438 2 482 0 q 374 5 395 5 q 317 3 351 5 q 244 0 284 1 q 252 266 244 88 q 261 476 261 444 q 258 670 261 533 q 255 818 255 808 q 158 815 188 818 q 8 801 128 813 l 12 872 l 8 932 q 198 927 70 932 q 373 922 327 922 q 572 927 445 922 q 738 932 700 932 l 733 870 l 738 801 q 493 818 614 818 "},"Φ":{"x_min":36,"x_max":1093,"ha":1129,"o":"m 445 960 q 513 952 484 955 q 566 950 543 950 q 634 954 599 950 q 683 960 669 958 q 676 909 680 943 q 672 858 672 876 l 751 851 q 998 732 904 829 q 1093 484 1093 634 q 980 206 1093 301 q 672 72 867 112 q 673 31 672 44 q 683 -26 674 19 q 619 -20 653 -23 q 566 -17 585 -17 q 500 -20 535 -17 q 445 -26 465 -24 q 453 17 449 -5 q 458 72 458 40 l 380 82 q 133 205 231 103 q 36 454 36 307 q 150 732 36 636 q 458 858 265 828 q 452 911 458 879 q 445 960 447 943 m 668 700 l 668 467 l 668 234 l 672 171 q 817 266 774 182 q 861 468 861 351 q 817 666 861 583 q 669 764 773 750 l 668 700 m 419 755 q 301 654 336 739 q 267 469 267 570 q 309 267 267 351 q 455 171 351 183 l 458 234 l 462 424 l 458 700 l 458 764 l 419 755 "},"j":{"x_min":-62,"x_max":313,"ha":396,"o":"m 196 660 q 235 660 215 660 q 307 666 254 661 l 306 490 q 309 182 306 369 q 313 -31 313 -4 q 217 -278 313 -195 q -49 -361 121 -361 l -62 -305 q 59 -240 24 -305 q 95 -81 95 -175 l 95 255 q 89 459 95 322 q 84 666 84 597 q 196 660 143 660 m 195 1014 q 272 980 239 1014 q 306 902 306 947 q 273 825 306 858 q 195 793 240 793 q 117 824 150 793 q 84 902 84 856 q 117 980 84 947 q 195 1014 150 1014 "},"Σ":{"x_min":18.0625,"x_max":801.390625,"ha":843,"o":"m 747 865 l 751 804 q 641 808 715 804 q 527 813 568 813 l 369 813 q 481 664 427 733 q 594 519 534 594 q 402 315 496 419 l 304 203 l 544 203 q 672 208 586 203 q 801 214 758 214 l 794 112 q 801 0 794 59 l 456 4 l 18 0 l 18 57 q 261 330 138 181 l 365 461 q 222 657 298 559 q 55 865 147 755 l 55 932 q 243 928 118 932 q 431 924 368 924 q 630 928 511 924 q 751 932 750 932 l 747 865 "},"1":{"x_min":55,"x_max":502,"ha":749,"o":"m 276 616 q 273 680 276 637 q 271 747 271 723 q 197 713 223 726 q 112 666 172 700 l 55 754 q 471 940 291 848 l 498 927 l 492 454 l 493 465 l 493 202 l 493 216 q 497 102 493 178 q 502 0 502 26 l 383 6 q 314 3 362 6 q 264 0 266 0 q 270 359 264 127 q 276 616 276 591 "},"ä":{"x_min":44,"x_max":706.78125,"ha":706,"o":"m 236 -15 q 98 35 153 -15 q 44 169 44 86 q 212 352 44 301 q 401 421 380 403 q 410 439 410 432 q 373 539 410 502 q 275 577 337 577 q 140 511 185 577 l 135 511 l 115 585 q 230 657 164 632 q 365 683 296 683 q 543 623 479 683 q 608 452 608 564 l 604 213 q 604 166 604 184 q 608 123 604 148 q 625 87 612 99 q 658 76 638 76 q 679 80 666 76 q 702 90 691 84 l 706 40 q 643 1 676 14 q 563 -15 610 -10 q 480 5 518 -15 q 419 64 442 25 q 236 -15 350 -15 m 221 976 q 289 948 261 976 q 317 878 317 920 q 290 811 317 839 q 223 784 264 784 q 155 811 186 784 q 125 878 125 839 q 154 946 125 917 q 221 976 183 976 m 481 976 q 549 948 521 976 q 577 878 577 920 q 550 811 577 839 q 483 784 524 784 q 414 812 444 784 q 385 878 385 841 q 412 946 385 917 q 481 976 440 976 m 240 200 q 261 128 240 158 q 321 99 282 99 q 388 131 367 99 q 410 211 410 164 l 410 352 q 287 302 335 338 q 240 200 240 267 "},"<":{"x_min":175,"x_max":959.75,"ha":1138,"o":"m 959 650 l 362 406 l 959 162 l 959 17 l 175 340 l 175 471 l 959 796 l 959 650 "},"£":{"x_min":48,"x_max":734.109375,"ha":749,"o":"m 56 88 q 52 142 56 117 q 48 181 49 167 q 138 198 100 181 q 185 254 177 215 q 193 315 193 292 l 191 429 l 153 429 q 99 425 128 429 q 56 421 70 421 l 61 467 l 56 512 q 113 506 81 508 q 184 504 145 504 q 172 598 172 552 q 259 829 172 748 q 499 910 346 910 q 734 848 623 910 q 710 778 718 809 q 691 695 702 747 l 658 695 q 613 795 645 758 q 523 833 581 833 q 417 787 455 833 q 379 671 379 741 q 384 582 379 637 q 391 504 390 527 l 463 504 l 480 504 q 519 504 500 504 q 598 512 538 505 l 593 466 l 598 422 l 493 429 l 391 429 q 343 288 382 340 q 219 184 303 236 l 542 189 l 724 195 q 716 146 720 174 q 711 98 711 117 q 713 62 711 78 q 724 0 716 45 q 557 3 667 0 q 391 8 448 8 q 220 3 334 8 q 48 0 106 0 q 52 46 49 16 q 56 88 56 77 "},"¹":{"x_min":66,"x_max":360,"ha":494,"o":"m 212 726 l 212 802 q 158 781 187 795 q 102 755 129 768 l 66 808 q 206 857 157 838 q 342 919 256 876 l 356 910 l 356 627 l 356 638 l 356 477 l 356 484 q 356 429 356 451 q 360 354 356 408 l 307 358 l 202 354 q 210 520 209 418 q 212 634 212 623 l 212 726 "},"t":{"x_min":9,"x_max":468.71875,"ha":463,"o":"m 9 584 l 10 627 l 10 671 q 54 667 25 668 q 102 667 84 667 l 102 687 l 102 704 q 95 823 102 765 q 192 859 147 839 q 298 914 237 880 l 327 914 q 319 853 323 890 q 315 791 315 816 l 315 667 l 344 667 q 433 670 387 667 l 430 629 l 430 582 l 309 584 l 309 226 q 322 107 309 149 q 393 65 335 65 q 468 72 427 65 l 463 9 q 381 -11 425 -4 q 292 -18 336 -18 q 145 25 196 -18 q 95 165 95 69 q 98 410 95 260 q 102 583 102 559 l 9 584 "},"λ":{"x_min":22.609375,"x_max":662.890625,"ha":686,"o":"m 550 0 l 433 0 q 394 177 417 79 q 360 323 372 275 q 318 490 349 372 q 234 238 269 359 q 179 0 199 116 l 103 0 l 22 0 q 109 214 69 109 q 182 416 149 318 q 264 662 215 514 q 214 834 247 760 q 111 909 180 909 q 80 903 99 909 q 51 895 61 898 l 32 964 q 121 1008 76 993 q 215 1024 167 1024 q 384 925 342 1024 q 458 718 426 826 l 529 459 l 662 0 l 550 0 "},"ù":{"x_min":75,"x_max":722,"ha":808,"o":"m 474 757 l 249 865 q 198 900 216 883 q 181 946 181 917 q 203 998 181 977 q 256 1019 225 1019 q 303 1003 282 1019 q 356 955 324 987 l 542 757 l 474 757 m 292 -15 q 142 41 202 -15 q 83 189 83 98 l 83 337 q 79 509 83 394 q 75 668 75 624 q 134 661 108 663 q 185 659 160 659 q 240 662 209 659 q 300 668 271 665 q 290 455 290 570 l 290 384 l 290 279 q 316 146 290 181 q 394 111 343 111 q 467 147 441 111 q 501 234 493 184 l 501 330 q 499 488 501 415 q 495 668 497 562 q 554 662 518 665 q 613 659 589 659 q 671 662 640 659 q 722 668 701 665 q 717 505 722 625 q 712 326 712 386 q 717 156 712 270 q 722 1 722 43 l 617 4 l 511 1 l 511 96 q 410 15 468 46 q 292 -15 353 -15 "},"W":{"x_min":-8.328125,"x_max":1325,"ha":1326,"o":"m -8 932 q 67 929 13 932 q 125 926 120 926 q 190 929 147 926 q 255 932 233 932 q 300 737 277 829 q 357 519 323 644 q 419 298 391 394 q 504 548 455 403 q 576 759 554 693 q 633 932 598 825 l 711 926 q 756 929 726 926 q 802 932 787 932 q 859 729 836 807 q 913 557 881 651 q 998 297 944 462 q 1166 932 1094 604 l 1248 926 q 1298 929 1280 926 q 1325 932 1316 932 l 1230 643 l 1019 0 q 972 4 983 4 q 937 5 962 5 q 884 2 904 5 q 855 0 865 0 q 793 200 831 80 q 740 363 754 319 l 652 623 q 543 325 594 476 q 441 0 493 175 q 393 3 423 0 q 359 6 363 6 q 308 4 330 6 q 272 0 286 1 q 184 320 222 191 q 107 576 147 450 q -8 932 68 703 "},"ï":{"x_min":-26,"x_max":422,"ha":396,"o":"m 93 126 l 93 542 q 87 601 93 557 q 82 666 82 645 q 141 660 111 663 q 198 658 172 658 q 255 661 223 658 q 316 666 287 663 q 311 621 315 658 q 303 544 307 584 l 303 319 l 303 115 l 315 0 l 195 2 l 81 0 q 93 126 93 66 m 68 976 q 134 947 107 976 q 162 878 162 918 q 136 811 162 839 q 71 784 111 784 q 2 811 31 784 q -26 878 -26 838 q 1 946 -26 917 q 68 976 29 976 m 327 976 q 394 948 366 976 q 422 878 422 920 q 396 811 422 838 q 329 784 370 784 q 260 811 288 784 q 232 878 232 838 q 260 947 232 918 q 327 976 288 976 "},">":{"x_min":174.984375,"x_max":961,"ha":1138,"o":"m 961 472 l 961 340 l 175 17 l 175 162 l 773 406 l 174 650 l 174 796 l 961 472 "},"v":{"x_min":0,"x_max":669.453125,"ha":667,"o":"m 0 667 q 75 663 26 667 q 131 659 123 659 q 202 663 156 659 q 255 667 247 667 l 293 528 l 387 223 q 526 667 473 447 l 595 659 q 637 663 611 659 q 669 667 663 667 q 541 343 602 505 q 418 0 480 181 q 368 4 395 2 q 330 6 341 6 q 279 3 311 6 q 244 0 248 0 q 129 340 184 186 q 0 667 73 494 "},"τ":{"x_min":9,"x_max":654.84375,"ha":661,"o":"m 446 557 l 445 521 l 445 108 q 456 0 445 55 l 338 4 l 225 0 q 234 69 231 40 q 237 125 237 98 l 237 320 l 237 516 l 237 557 q 59 459 115 557 l 24 459 q 20 516 24 490 q 9 581 17 543 q 122 641 59 625 q 263 658 185 658 l 440 656 q 654 667 556 656 q 649 610 649 641 q 654 554 649 580 q 525 555 603 554 q 446 557 447 557 "},"û":{"x_min":75,"x_max":722,"ha":808,"o":"m 339 1004 l 463 1004 l 616 757 l 549 757 l 400 879 l 254 757 l 186 757 l 339 1004 m 292 -15 q 142 41 202 -15 q 83 189 83 98 l 83 337 q 79 509 83 394 q 75 668 75 625 q 134 662 108 664 q 185 660 160 660 q 240 662 209 660 q 300 668 271 665 q 290 455 290 570 l 290 384 l 290 279 q 316 146 290 181 q 394 111 343 111 q 467 147 441 111 q 501 234 493 184 l 501 330 q 499 488 501 415 q 495 668 497 562 q 554 662 518 665 q 613 660 589 660 q 671 662 640 660 q 722 668 701 665 q 717 505 722 625 q 712 326 712 386 q 717 156 712 270 q 722 1 722 43 l 617 4 l 511 1 l 511 96 q 410 15 468 46 q 292 -15 353 -15 "},"ξ":{"x_min":53,"x_max":675,"ha":675,"o":"m 559 813 q 508 904 534 873 q 432 936 482 936 q 335 887 372 936 q 299 776 299 838 q 372 648 299 683 q 550 614 446 614 l 546 569 l 546 525 l 455 528 q 320 498 379 528 q 251 432 261 469 q 240 386 241 396 q 239 360 239 376 q 240 322 239 335 q 244 304 241 310 q 363 205 258 226 q 569 165 469 183 q 675 25 675 130 q 647 -83 675 -27 q 536 -221 619 -139 l 468 -181 q 514 -114 498 -141 q 531 -55 531 -88 q 380 23 531 -5 q 141 98 229 53 q 53 287 53 143 q 113 467 53 390 q 274 586 173 544 q 144 666 196 615 q 92 790 92 716 q 180 962 92 901 q 389 1024 269 1024 q 515 1009 455 1024 q 640 963 575 994 q 620 886 632 936 q 604 809 608 836 l 559 813 "},"&":{"x_min":50,"x_max":948.609375,"ha":974,"o":"m 316 -18 q 128 44 206 -18 q 50 215 50 107 q 115 388 50 315 q 281 502 180 462 q 216 609 243 547 q 190 723 190 670 q 266 877 190 823 q 446 932 342 932 q 604 889 537 932 q 672 761 672 847 q 621 631 672 687 q 495 541 571 576 q 709 295 593 412 q 786 421 751 348 q 845 567 822 494 q 880 517 861 538 q 934 463 899 495 q 851 336 888 387 q 761 233 813 285 q 856 123 811 174 q 948 26 902 71 l 948 1 q 860 7 887 6 q 817 8 833 8 q 756 6 779 8 q 690 1 734 5 l 612 92 q 469 11 545 40 q 316 -18 394 -18 m 232 284 q 284 160 232 214 q 408 106 337 106 q 484 118 449 106 q 562 155 519 130 q 421 323 469 264 q 330 443 373 382 q 258 373 284 411 q 232 284 232 336 m 547 759 q 522 831 547 802 q 453 860 498 860 q 419 854 435 860 q 379 823 394 850 q 365 769 365 797 q 383 697 365 740 q 449 597 402 654 q 520 668 493 627 q 547 759 547 709 "},"Λ":{"x_min":-19.4375,"x_max":856.953125,"ha":836,"o":"m 583 700 l 856 0 q 781 3 823 0 q 723 6 740 6 q 645 3 688 6 q 587 0 602 0 q 563 90 579 43 q 538 163 547 137 l 359 637 l 189 161 q 142 0 163 87 l 72 5 q 35 4 48 5 q -19 0 23 4 q 25 92 -2 33 q 83 226 52 151 l 272 698 q 311 810 290 747 q 348 932 331 873 q 394 927 379 929 q 423 926 409 926 q 474 929 456 926 q 501 932 491 932 q 583 700 536 819 "},"I":{"x_min":94,"x_max":354,"ha":447,"o":"m 111 402 q 107 716 111 609 q 94 932 103 822 q 161 925 124 929 q 220 922 198 922 q 292 927 245 922 q 353 931 339 932 q 340 716 343 819 q 337 465 337 613 q 340 221 337 326 q 354 0 344 116 q 273 2 330 0 q 214 5 216 5 l 95 0 q 107 199 103 88 q 111 402 111 311 "},"G":{"x_min":43,"x_max":948,"ha":1015,"o":"m 552 -15 q 183 110 324 -15 q 43 461 43 236 q 195 823 43 693 q 583 954 347 954 q 763 932 679 954 q 929 865 848 911 q 879 697 895 784 l 862 697 q 749 816 818 772 q 595 860 680 860 q 390 769 471 860 q 300 608 309 679 q 289 513 291 536 q 287 469 287 490 q 289 404 287 426 q 294 375 292 382 q 389 167 310 250 q 590 84 468 84 q 713 100 651 84 q 699 430 713 272 q 824 423 768 423 q 948 431 886 423 q 942 323 948 395 q 937 214 937 251 q 939 118 937 185 q 942 47 942 51 q 746 1 839 17 q 552 -15 652 -15 "},"ΰ":{"x_min":39,"x_max":768,"ha":843,"o":"m 768 415 q 666 114 768 244 q 404 -15 565 -15 q 165 56 246 -15 q 85 284 85 127 l 89 478 q 87 589 89 523 q 85 666 85 656 q 148 663 102 666 q 198 661 194 661 q 266 663 219 661 q 314 666 312 666 q 298 476 304 566 q 293 294 293 387 q 313 122 293 193 q 405 52 333 52 q 518 146 490 52 q 547 351 547 240 q 528 502 547 433 q 472 656 510 570 q 583 659 531 656 q 687 672 636 662 q 746 547 725 613 q 768 415 768 481 m 121 961 q 179 935 155 961 q 203 877 203 910 q 179 820 203 844 q 121 797 155 797 q 64 820 89 797 q 39 879 39 844 q 62 935 39 910 q 121 961 86 961 m 462 1017 q 504 998 486 1017 q 522 957 522 980 q 508 919 522 935 q 470 886 494 903 l 282 755 l 224 755 l 368 950 q 413 998 391 979 q 462 1017 434 1017 m 657 961 q 713 935 688 961 q 739 877 739 910 q 715 820 739 844 q 658 797 691 797 q 600 820 625 797 q 575 879 575 844 q 599 936 575 912 q 657 961 623 961 "},"`":{"x_min":65.671875,"x_max":330.9375,"ha":375,"o":"m 251 613 q 217 540 240 569 q 153 512 193 512 q 92 537 118 512 q 65 598 65 562 q 87 665 65 634 l 292 949 l 330 933 l 251 613 "},"Υ":{"x_min":-30,"x_max":797,"ha":747,"o":"m 136 650 q 67 772 123 672 q -30 932 10 872 l 92 926 q 184 929 120 926 q 256 931 249 931 q 345 740 304 825 q 442 554 386 656 q 541 730 492 636 q 637 931 589 825 l 712 926 q 753 929 726 926 q 797 931 781 931 q 644 689 714 812 q 498 420 573 566 l 502 143 l 508 0 l 414 5 l 256 0 q 262 138 256 50 q 269 237 269 226 l 269 402 l 136 650 "},"r":{"x_min":80,"x_max":505,"ha":521,"o":"m 91 326 q 85 495 91 381 q 80 666 80 609 l 181 661 q 246 663 201 661 q 297 666 291 666 q 283 592 287 630 q 280 504 280 554 l 288 504 q 357 632 311 581 q 474 683 403 683 l 505 683 q 495 571 498 631 q 492 457 492 511 q 448 477 471 468 q 406 486 424 486 q 320 439 343 486 q 298 323 298 392 q 300 147 298 208 q 311 0 302 85 q 247 3 288 0 q 195 6 206 6 q 130 3 171 6 q 80 0 88 0 q 85 162 80 53 q 91 326 91 270 "},"x":{"x_min":-4.5625,"x_max":646.828125,"ha":644,"o":"m 155 0 l 84 5 q 28 4 46 5 q -4 0 6 0 q 110 148 55 75 q 223 307 164 222 l 113 498 l 7 667 q 86 663 38 667 q 141 659 134 659 q 215 663 169 659 q 271 667 262 667 l 366 473 q 419 555 398 521 q 481 667 439 590 l 553 659 q 601 663 571 659 q 637 667 631 667 q 537 542 580 598 q 419 384 494 486 l 537 177 q 646 0 588 88 q 571 3 620 0 q 516 6 523 6 q 441 3 489 6 q 385 0 392 0 l 276 218 l 155 0 "},"è":{"x_min":41,"x_max":684.046875,"ha":729,"o":"m 482 98 q 566 112 532 98 q 643 160 600 126 l 661 151 q 643 96 652 125 q 628 40 634 66 q 521 -1 577 11 q 403 -15 466 -15 q 141 79 241 -15 q 41 336 41 173 q 137 586 41 490 q 386 683 234 683 q 608 601 532 683 q 684 373 684 520 l 684 332 l 267 332 q 325 165 267 232 q 482 98 383 98 m 436 754 l 211 862 q 162 896 181 877 q 143 946 143 915 q 165 996 143 976 q 217 1017 186 1017 q 274 996 250 1017 q 320 952 298 975 l 508 754 l 436 754 m 478 411 q 481 444 481 422 q 459 566 481 513 q 377 620 438 620 q 292 562 318 620 q 267 437 267 505 l 267 411 l 478 411 "},"μ":{"x_min":79,"x_max":729,"ha":808,"o":"m 717 322 q 723 136 717 256 q 729 0 729 15 l 629 5 q 564 2 609 5 q 518 0 519 0 l 518 81 q 448 4 479 23 q 384 -15 417 -15 q 333 -4 352 -15 q 288 25 313 7 l 288 34 l 287 -57 l 288 -190 l 287 -180 q 292 -278 287 -212 q 297 -368 297 -344 q 221 -361 240 -361 q 189 -361 201 -361 q 150 -361 168 -361 q 79 -368 131 -362 q 86 -277 83 -323 q 90 -187 90 -231 l 90 116 q 90 303 90 177 q 90 491 90 428 q 86 593 90 530 q 82 667 82 655 q 190 659 139 659 q 255 663 214 659 q 305 666 296 666 q 301 506 305 613 q 297 360 297 398 l 297 260 q 315 142 297 189 q 396 95 334 95 q 486 153 466 95 q 507 299 507 211 q 503 517 507 385 q 500 667 500 650 q 619 659 566 659 q 683 663 645 659 q 729 666 722 666 q 723 465 729 594 q 717 322 717 336 "},"÷":{"x_min":169,"x_max":969,"ha":1139,"o":"m 669 667 q 638 597 669 626 q 566 568 608 568 q 497 597 526 568 q 468 669 468 626 q 497 739 468 710 q 567 769 526 769 q 639 739 610 769 q 669 667 669 710 m 969 474 l 969 342 l 169 342 l 169 474 l 969 474 m 669 144 q 638 73 669 103 q 568 44 608 44 q 497 73 526 44 q 468 142 468 102 q 498 214 468 184 q 568 244 528 244 q 639 216 610 244 q 669 144 669 188 "},"h":{"x_min":80,"x_max":729,"ha":808,"o":"m 509 683 q 660 626 601 683 q 719 477 719 570 l 719 403 l 719 246 q 720 109 719 148 q 729 0 722 70 q 665 2 709 0 q 617 5 620 5 q 551 2 598 5 q 501 0 505 0 q 510 147 508 73 q 513 333 513 221 l 509 426 q 482 516 503 482 q 411 551 461 551 q 356 534 380 551 q 322 489 332 517 q 306 428 312 462 q 301 331 301 394 q 304 166 301 277 q 308 0 308 55 q 244 3 284 0 q 194 6 204 6 q 129 3 171 6 q 80 0 88 0 q 85 255 80 84 q 91 513 91 426 q 85 769 91 598 q 80 1024 80 940 l 180 1018 l 197 1018 q 308 1023 259 1018 q 304 902 308 976 q 301 815 301 827 l 301 583 q 509 683 379 683 "},".":{"x_min":68,"x_max":306,"ha":375,"o":"m 187 221 q 268 186 230 221 q 306 104 306 151 q 270 23 306 61 q 187 -15 235 -15 q 102 18 137 -15 q 68 103 68 51 q 102 186 68 151 q 187 221 137 221 "},"φ":{"x_min":32,"x_max":1012,"ha":1044,"o":"m 418 388 q 477 605 418 528 q 671 683 537 683 q 913 589 814 683 q 1012 352 1012 495 q 902 94 1012 180 q 612 -7 793 9 q 617 -198 612 -69 q 622 -374 622 -326 l 544 -365 q 471 -366 503 -365 q 404 -373 438 -368 q 411 -183 404 -315 q 418 -5 418 -51 q 359 1 377 0 q 320 8 341 2 q 112 118 193 29 q 32 334 32 206 q 123 568 32 488 q 374 669 215 648 q 381 643 376 656 q 393 612 386 629 q 278 504 311 576 q 246 329 246 431 q 285 142 246 223 q 418 61 325 61 l 418 276 l 418 388 m 612 61 q 707 88 670 66 q 763 157 743 109 q 788 255 782 205 q 794 377 794 305 q 791 450 794 416 q 779 528 788 484 q 748 593 770 572 q 696 614 725 614 q 631 564 650 614 q 612 459 612 515 l 612 276 l 612 61 "},";":{"x_min":51.390625,"x_max":347,"ha":447,"o":"m 226 654 q 310 619 274 654 q 347 534 347 584 q 312 450 347 485 q 227 416 277 416 q 142 449 177 416 q 108 534 108 482 q 142 619 108 584 q 226 654 177 654 m 134 120 q 172 203 145 170 q 244 237 200 237 q 313 207 284 237 q 343 137 343 178 q 337 100 343 116 q 319 63 331 84 l 88 -254 l 51 -238 l 134 120 "},"f":{"x_min":8,"x_max":463.5625,"ha":425,"o":"m 381 1024 q 433 1019 413 1024 q 463 1010 453 1012 q 443 934 456 987 q 419 826 430 880 l 412 826 q 362 862 384 850 q 310 874 339 874 q 233 812 233 874 q 258 729 233 773 q 300 658 284 685 l 317 658 q 354 658 336 658 q 428 665 372 659 l 425 669 l 425 641 q 425 607 425 625 q 425 576 425 590 l 356 583 l 306 583 l 306 273 q 308 166 306 200 q 323 0 310 133 q 258 3 299 0 q 209 6 217 6 q 144 3 185 6 q 92 0 102 0 q 102 127 99 51 q 105 272 105 203 l 105 580 l 56 583 l 8 583 l 9 622 l 9 665 q 52 659 29 660 q 105 658 74 658 q 183 904 105 784 q 381 1024 262 1024 "},"A":{"x_min":-29.171875,"x_max":850,"ha":829,"o":"m 109 322 q 193 530 143 400 q 278 751 244 660 q 351 949 312 843 l 420 944 l 490 949 q 672 450 584 685 q 850 0 759 215 l 716 4 l 580 0 l 551 91 l 497 259 q 398 261 448 259 q 300 264 348 262 l 202 259 q 112 0 162 134 l 22 4 l -29 0 l 109 322 m 354 368 l 464 368 q 416 509 440 446 q 355 662 393 572 q 243 370 295 519 l 354 368 "},"6":{"x_min":40,"x_max":716,"ha":749,"o":"m 463 545 q 646 475 576 545 q 716 293 716 405 q 628 65 716 150 q 398 -19 541 -19 q 133 84 226 -19 q 40 362 40 187 q 160 750 40 590 q 501 911 280 911 q 582 903 544 911 q 670 879 620 895 q 658 812 663 845 q 652 748 652 779 l 643 747 q 579 804 612 784 q 502 825 546 825 q 330 716 383 825 q 278 475 278 608 q 359 528 309 511 q 463 545 409 545 m 383 449 q 297 393 317 449 q 278 257 278 337 q 296 113 278 174 q 381 52 315 52 q 469 110 449 52 q 490 256 490 169 q 469 393 490 337 q 383 449 449 449 "},"ϊ":{"x_min":-28,"x_max":423,"ha":396,"o":"m 91 126 l 91 543 l 80 666 q 139 661 105 663 q 196 658 173 658 q 264 660 238 658 q 314 666 290 663 q 304 586 307 616 q 301 523 301 557 l 301 113 q 302 72 301 88 q 314 0 304 56 l 195 4 l 81 0 q 87 67 84 30 q 91 126 91 104 m 68 975 q 136 947 108 975 q 164 879 164 919 q 138 811 164 840 q 72 783 112 783 q 2 810 33 783 q -28 879 -28 838 q 0 947 -28 919 q 68 975 27 975 m 328 975 q 395 947 367 975 q 423 879 423 919 q 397 811 423 840 q 331 783 371 783 q 261 810 292 783 q 231 879 231 838 q 258 947 231 919 q 328 975 286 975 "},"π":{"x_min":19,"x_max":957.890625,"ha":965,"o":"m 802 521 l 802 108 l 812 0 l 696 4 l 582 0 q 585 61 582 19 q 589 125 589 102 l 594 320 l 589 557 l 504 563 l 421 557 l 421 520 l 421 108 q 432 0 421 55 l 314 4 l 200 0 q 209 64 206 37 q 213 115 213 91 l 213 315 l 213 514 l 213 557 q 129 531 165 557 q 68 461 93 505 l 33 461 q 31 510 33 497 q 19 603 30 523 q 136 645 75 634 q 273 657 196 657 l 531 657 l 792 657 l 957 667 l 955 612 l 957 552 l 803 557 l 802 521 "},"ά":{"x_min":30,"x_max":827.21875,"ha":878,"o":"m 669 665 l 749 662 l 827 665 q 763 499 782 551 q 720 377 743 447 l 818 0 q 763 6 792 2 q 717 10 733 10 q 662 5 692 10 q 615 0 632 1 l 594 101 q 361 -15 501 -15 q 120 83 210 -15 q 30 334 30 182 q 123 583 30 484 q 368 683 217 683 q 515 647 449 683 q 633 547 582 612 q 651 601 640 563 q 669 665 662 638 m 523 952 q 576 1001 556 986 q 625 1017 596 1017 q 677 994 656 1017 q 698 943 698 972 q 679 896 698 915 q 629 862 660 877 l 406 754 l 337 754 l 523 952 m 383 614 q 313 588 343 614 q 276 523 283 562 q 260 434 265 484 q 256 333 256 385 q 269 174 256 249 q 305 87 275 122 q 385 52 335 52 q 509 144 473 52 q 546 340 546 236 q 522 504 546 428 q 455 597 498 580 q 383 614 411 614 "},"O":{"x_min":40,"x_max":1086,"ha":1129,"o":"m 577 949 q 945 829 804 949 q 1086 486 1086 710 q 942 114 1086 244 q 552 -15 798 -15 q 176 107 313 -15 q 40 465 40 229 q 188 823 40 697 q 577 949 337 949 m 562 73 q 773 194 706 73 q 840 472 840 315 q 773 742 840 624 q 566 860 706 860 q 353 742 420 860 q 287 465 287 624 q 353 193 287 313 q 562 73 420 73 "},"n":{"x_min":80,"x_max":727,"ha":808,"o":"m 91 338 q 85 512 91 391 q 80 667 80 632 q 137 661 125 662 q 180 661 149 661 q 249 661 215 661 q 293 666 279 665 l 293 568 q 391 648 333 616 q 508 681 449 681 q 659 624 600 681 q 719 475 719 567 l 719 329 q 723 172 719 287 q 727 0 727 58 q 673 2 709 0 q 617 5 637 5 q 552 2 598 5 q 502 0 506 0 q 507 175 502 58 q 512 333 512 291 l 512 358 q 508 426 512 393 q 483 514 508 476 q 411 552 459 552 q 355 534 379 552 q 318 487 331 517 q 302 419 305 457 q 299 330 299 382 q 304 148 299 264 q 309 0 309 33 q 244 3 285 0 q 195 6 203 6 q 128 3 170 6 q 80 0 86 0 q 85 188 80 65 q 91 338 91 311 "},"3":{"x_min":30,"x_max":680,"ha":749,"o":"m 365 908 q 561 853 479 908 q 643 691 643 799 q 593 565 643 612 q 457 485 544 517 l 457 476 q 617 410 555 463 q 680 260 680 356 q 573 50 680 122 q 318 -21 466 -21 q 30 58 155 -21 q 90 161 67 120 q 137 250 113 202 l 154 250 q 185 109 154 167 q 292 51 216 51 q 404 109 367 51 q 442 245 442 167 q 397 376 442 327 q 271 425 353 425 l 231 425 l 231 505 l 268 504 q 392 549 345 504 q 439 670 439 594 q 408 785 439 738 q 313 833 377 833 q 213 776 244 833 q 183 644 183 719 l 170 634 q 121 690 145 665 q 43 767 97 716 q 179 874 94 840 q 365 908 265 908 "},"9":{"x_min":30,"x_max":705,"ha":749,"o":"m 281 343 q 98 414 167 343 q 30 601 30 486 q 121 827 30 744 q 359 911 213 911 q 618 801 532 911 q 705 515 705 692 q 583 135 705 291 q 243 -21 461 -21 q 158 -12 193 -21 q 74 9 123 -4 q 87 74 82 42 q 92 140 92 106 l 102 143 q 163 84 127 105 q 243 64 199 64 q 414 172 362 64 q 467 414 467 280 q 386 359 435 376 q 281 343 337 343 m 360 440 q 446 495 426 440 q 467 630 467 551 q 447 775 467 714 q 361 837 427 837 q 274 778 293 837 q 256 631 256 720 q 276 496 256 553 q 360 440 296 440 "},"l":{"x_min":86,"x_max":316,"ha":407,"o":"m 99 501 q 95 701 99 579 q 92 843 92 823 l 86 1024 q 154 1016 125 1019 q 201 1013 183 1013 q 265 1018 232 1013 q 316 1023 297 1022 q 309 719 316 915 q 303 501 303 523 l 307 180 l 316 0 q 263 5 309 1 q 201 10 218 10 q 138 6 169 10 q 86 0 108 2 q 92 292 86 104 q 99 501 99 480 "},"κ":{"x_min":80,"x_max":732.765625,"ha":756,"o":"m 184 659 q 306 667 239 659 l 301 509 l 295 461 l 295 389 q 422 510 367 447 q 545 667 478 573 l 618 667 l 709 667 l 714 657 l 628 576 l 475 425 q 552 292 510 364 q 636 154 595 220 l 732 0 q 661 3 706 0 q 607 6 616 6 q 536 3 579 6 q 486 0 493 0 q 386 174 440 83 q 295 329 331 266 l 295 249 q 298 106 295 206 q 301 0 301 6 l 190 4 l 80 0 q 85 127 80 43 q 91 255 91 212 q 85 461 91 323 q 80 666 80 598 l 184 659 "},"4":{"x_min":43,"x_max":708.265625,"ha":749,"o":"m 706 383 l 701 299 q 704 248 701 271 q 708 211 706 225 q 592 221 650 221 l 592 176 q 594 83 592 127 q 606 0 597 40 q 540 3 579 0 q 497 6 501 6 q 433 3 473 6 q 384 0 393 0 q 393 104 390 44 q 396 219 396 165 l 309 221 q 169 216 262 221 q 43 212 76 212 l 44 296 l 44 379 q 174 568 113 477 q 287 738 235 658 q 396 909 338 818 q 503 902 444 902 q 553 902 527 902 q 606 909 589 907 q 599 720 606 843 q 592 534 592 596 l 592 370 q 650 375 614 370 q 706 383 686 380 m 396 370 l 396 752 l 141 370 l 396 370 "},"p":{"x_min":82,"x_max":772,"ha":825,"o":"m 502 683 q 704 574 636 683 q 772 322 772 466 q 701 82 772 179 q 491 -15 630 -15 q 302 85 371 -15 l 302 -71 l 309 -385 q 249 -379 278 -382 q 196 -376 221 -376 q 139 -379 171 -376 q 82 -384 108 -381 q 87 -252 82 -341 q 92 -131 92 -162 l 88 487 l 82 666 q 195 659 141 659 q 235 660 216 659 q 307 666 254 661 q 302 580 302 618 q 391 656 343 630 q 502 683 440 683 m 430 79 q 472 86 453 79 q 515 122 491 94 q 548 204 539 151 q 557 337 557 258 q 532 503 557 431 q 430 576 507 576 q 324 501 350 576 q 298 327 298 427 q 323 152 298 226 q 430 79 349 79 "},"ψ":{"x_min":59,"x_max":1025,"ha":1064,"o":"m 1025 437 q 919 131 1025 249 q 625 -7 813 13 q 630 -190 625 -68 q 636 -374 636 -312 l 558 -365 q 483 -366 516 -365 q 418 -373 451 -368 q 424 -159 418 -297 q 431 -5 431 -22 q 374 0 401 -2 q 271 20 348 2 q 127 124 195 37 q 59 331 59 211 l 60 484 l 59 666 l 168 663 l 277 666 q 269 506 277 619 q 261 358 261 392 q 293 144 261 228 q 431 51 325 60 l 431 253 q 424 572 431 367 q 418 800 418 777 l 536 795 l 636 798 q 630 650 636 748 q 625 501 625 551 l 625 254 l 625 51 q 767 146 726 51 q 808 359 808 241 q 798 498 808 440 q 762 650 788 556 q 867 654 821 650 q 980 666 913 658 q 1025 437 1025 552 "},"Ü":{"x_min":82,"x_max":910,"ha":997,"o":"m 210 927 l 338 931 q 329 643 338 836 q 321 421 321 451 q 360 197 321 284 q 521 110 400 110 q 678 162 609 110 q 756 279 747 214 q 768 420 765 344 q 771 548 771 495 q 756 931 771 755 l 814 927 l 910 931 q 903 770 910 883 q 896 616 896 657 l 896 480 l 896 375 q 794 81 896 178 q 493 -15 692 -15 q 210 56 321 -15 q 100 287 100 128 q 91 619 100 386 q 82 931 82 852 l 210 927 m 394 1242 q 461 1215 433 1242 q 489 1148 489 1189 q 463 1078 489 1107 q 396 1050 437 1050 q 327 1078 355 1050 q 299 1148 299 1107 q 326 1214 299 1186 q 394 1242 354 1242 m 654 1242 q 721 1214 694 1242 q 749 1148 749 1187 q 724 1079 749 1108 q 658 1050 699 1050 q 588 1077 617 1050 q 559 1148 559 1105 q 587 1214 559 1187 q 654 1242 615 1242 "},"à":{"x_min":44,"x_max":706.78125,"ha":706,"o":"m 237 -15 q 98 35 153 -15 q 44 169 44 86 q 212 352 44 301 q 401 421 380 403 q 410 439 410 432 q 373 539 410 502 q 275 577 337 577 q 140 511 185 577 l 135 511 l 115 585 q 230 657 164 632 q 365 683 296 683 q 543 623 479 683 q 608 452 608 564 l 604 213 q 604 166 604 184 q 608 123 604 148 q 625 87 612 99 q 658 76 638 76 q 679 80 666 76 q 702 90 691 84 l 706 40 q 643 1 676 14 q 563 -15 610 -10 q 481 5 520 -15 q 421 64 441 26 q 237 -15 351 -15 m 425 755 l 201 863 q 145 902 159 883 q 131 944 131 921 q 153 996 131 975 q 206 1017 175 1017 q 253 1002 232 1017 q 309 953 273 987 l 494 755 l 425 755 m 240 200 q 261 128 240 158 q 321 99 282 99 q 388 131 367 99 q 410 211 410 164 l 410 352 q 287 302 335 338 q 240 200 240 267 "},"η":{"x_min":80,"x_max":727,"ha":808,"o":"m 91 339 q 85 512 91 391 q 80 667 80 632 q 137 661 125 662 q 180 661 149 661 q 244 663 199 661 q 293 666 290 666 l 293 568 q 391 651 338 622 q 511 681 443 681 q 660 622 602 681 q 719 471 719 564 l 719 328 l 719 -49 q 723 -219 719 -106 q 727 -373 727 -332 q 618 -365 670 -365 q 502 -373 562 -365 l 512 16 l 512 251 l 512 368 q 491 499 512 446 q 408 552 471 552 q 319 488 342 552 q 302 419 305 457 q 299 330 299 382 q 304 148 299 264 q 309 0 309 33 q 243 3 278 0 q 195 6 207 6 q 127 3 163 6 q 80 0 92 0 q 85 188 80 65 q 91 339 91 311 "}}}
